<?xml version="1.0" standalone="no"?>
<!DOCTYPE svg PUBLIC "-//W3C//DTD SVG 1.1//EN" "http://www.w3.org/Graphics/SVG/1.1/DTD/svg11.dtd" >
<svg xmlns="http://www.w3.org/2000/svg">
    <defs>
        <font id="">
            <font-face font-family=""
                       units-per-em="1000"
                       ascent="864"
                       descent="-271"
                       bbox="-16 -271 1000 864"
                    />
            <missing-glyph horiz-adv-x="0" />
            
            <glyph glyph-name="!" unicode="&#x21;" horiz-adv-x="248" d=" M83,87 Q83,106 91.5,119 Q100,132 121,132 Q145,132 159.5,120.5 Q174,109 174,85 Q174,66 158.5,54 Q143,42 125,42 Q104,42 93.5,54.5 Q83,67 83,87 M121,326 Q121,329 121,336.5 Q121,344 122,345 L181,641 Q183,654 191.5,666.5 Q200,679 214,679 Q228,679 238,666.5 Q248,654 248,642 Q248,640 248,637.5 Q248,635 247,634 L188,338 Q185,320 177.5,306.5 Q170,293 150,293 Q133,293 127,301.5 Q121,310 121,326"/> 
            <glyph glyph-name="&quot;" unicode="&#x22;" horiz-adv-x="272" d=" M160,549 Q160,561 168,574 Q176,587 188,598 Q200,609 213.5,616.5 Q227,624 238.5,624 Q250,624 261,613 Q272,602 272,590 Q272,578 263,565.5 Q254,553 241.5,542.5 Q229,532 214.5,525.5 Q200,519 189.5,519 Q179,519 169.5,528 Q160,537 160,549 M72,586 Q74,589 79.5,596.5 Q85,604 90.5,612.5 Q96,621 101.5,628 Q107,635 109,638 Q114,644 120.5,648.5 Q127,653 135,653 Q147,653 158,642 Q169,631 169,620.5 Q169,610 162.5,596.5 Q156,583 146.5,571 Q137,559 125,550.5 Q113,542 102,542 Q86,542 79,551.5 Q72,561 72,575"/> 
            <glyph glyph-name="'" unicode="&#x27;" horiz-adv-x="146" d=" M20,569 Q55,594 71.5,630.5 Q88,667 79,710 Q82,714 91.5,723 Q101,732 109,732 Q113,732 119,727.5 Q125,723 130.5,718 Q136,713 140.5,708 Q145,703 146,702 L146,669 Q146,650 140.5,625 Q135,600 123.5,577.5 Q112,555 94.5,539.5 Q77,524 53,524 Q20,524 20,558"/> 
            <glyph glyph-name="(" unicode="&#x28;" horiz-adv-x="297" d=" M126,320 Q126,500 230,644 Q235,651 244.5,659 Q254,667 263,667 Q275,667 286,656 Q297,645 297,633 Q297,618 288.5,603 Q280,588 268.5,572 Q257,556 246,541 Q235,526 230,511 Q212,462 202,419.5 Q192,377 192,326 Q192,299 195,278.5 Q198,258 204,239.5 Q210,221 220,201.5 Q230,182 245,156 Q248,151 254,143.5 Q260,136 266,126.5 Q272,117 277,107 Q282,97 282,89 Q282,75 274,67 Q266,59 252,59 Q233,59 216.5,74.5 Q200,90 186,114.5 Q172,139 160.5,169 Q149,199 141.5,228 Q134,257 130,281.5 Q126,306 126,320"/> 
            <glyph glyph-name=")" unicode="&#x29;" horiz-adv-x="248" d=" M91,90 Q91,102 98.5,111.5 Q106,121 116.5,129.5 Q127,138 136.5,147 Q146,156 151,168 Q160,193 166,215 Q172,237 175.5,258.5 Q179,280 180,303 Q181,326 181,352 Q181,423 168,479 Q155,535 121,597 L121,604 Q121,620 130.5,627 Q140,634 155,634 Q177,634 193.5,608.5 Q210,583 222,549.5 Q234,516 240,483 Q246,450 247,434 Q247,432 247,421.5 Q247,411 247.5,397.5 Q248,384 248,370 Q248,356 248,348 Q248,332 246.5,305 Q245,278 240.5,246 Q236,214 227.5,181.5 Q219,149 206,122.5 Q193,96 174.5,79.5 Q156,63 130,63 Q116,63 103.5,68 Q91,73 91,90"/> 
            <glyph glyph-name="," unicode="&#x2C;" horiz-adv-x="153" d=" M57,81 Q57,93 63,103 Q69,113 75.5,122.5 Q82,132 88,142.5 Q94,153 94,165 Q94,177 90,188 Q86,199 86,211 Q86,217 97,226.5 Q108,236 116,236 Q128,236 135.5,228.5 Q143,221 147,210.5 Q151,200 152,189 Q153,178 153,170 Q153,156 149.5,137 Q146,118 138,100.5 Q130,83 117.5,70.5 Q105,58 87,58 Q77,58 67,62.5 Q57,67 57,81"/> 
            <glyph glyph-name="-" unicode="&#x2D;" horiz-adv-x="446" d=" M38,422 Q38,437 57,444 Q76,451 100.5,453.5 Q125,456 148.5,455.5 Q172,455 181,455 L209,455 Q221,455 251.5,454 Q282,453 316,451.5 Q350,450 380.5,449 Q411,448 423,448 Q434,443 440,438 Q446,433 446,421 Q446,415 444,405.5 Q442,396 431,396 L53,396 Q48,396 43,407 Q38,418 38,422"/> 
            <glyph glyph-name="." unicode="&#x2E;" horiz-adv-x="137" d=" M61,191 Q61,206 70,217 Q79,228 93.5,228 Q108,228 122.5,219.5 Q137,211 137,195 Q137,174 124,163 Q111,152 91,152 Q73,152 67,163 Q61,174 61,191"/> 
            <glyph glyph-name="/" unicode="&#x2F;" horiz-adv-x="496" d=" M36,75 Q36,84 37,88.5 Q38,93 44,102 L436,656 Q447,672 466,672 Q480,672 488,663.5 Q496,655 496,641 Q496,639 496,636.5 Q496,634 495,634 L89,65 Q78,49 58,49 Q47,49 41.5,56.5 Q36,64 36,75"/> 
            <glyph glyph-name="0" unicode="&#x30;" horiz-adv-x="355" d=" M36,267 Q36,312 46,364.5 Q56,417 79,462 Q102,507 140,536.5 Q178,566 235,566 Q248,566 257,565 Q266,564 278,559 Q301,538 316,521 Q331,504 339.5,485.5 Q348,467 351.5,444.5 Q355,422 355,391 Q355,347 342,295.5 Q329,244 302.5,200 Q276,156 236.5,127 Q197,98 143,98 Q111,98 90,115.5 Q69,133 57,158.5 Q45,184 40.5,213.5 Q36,243 36,267 M98,266 Q98,253 99,236 Q100,219 105,203.5 Q110,188 119.5,177.5 Q129,167 147,167 Q185,167 212.5,191 Q240,215 257.5,249.5 Q275,284 283.5,323 Q292,362 292,392 Q292,413 289.5,432 Q287,451 279,465.5 Q271,480 256.5,488.5 Q242,497 219,497 Q183,497 159.5,471 Q136,445 122.5,408.5 Q109,372 103.5,332.5 Q98,293 98,266"/> 
            <glyph glyph-name="1" unicode="&#x31;" horiz-adv-x="197" d=" M137,556 Q139,564 148,575 Q157,586 166.5,586 Q176,586 181.5,580.5 Q187,575 190.5,567.5 Q194,560 195.5,552 Q197,544 197,538 Q197,536 196.5,532 Q196,528 196,527 L144,157 Q143,147 135.5,140.5 Q128,134 119,134 Q115,134 104,139 Q93,144 93,150 L93,224"/> 
            <glyph glyph-name="2" unicode="&#x32;" horiz-adv-x="373" d=" M265,390 Q269,390 272,394 M90,132 Q90,134 91.5,139.5 Q93,145 95,150 Q100,158 103,164 Q106,170 108,173 L108,172 Q150,227 196,288.5 Q242,350 285,407 L279,407 Q280,412 280,420 Q280,438 272.5,450 Q265,462 253,470.5 Q241,479 226,484.5 Q211,490 195,495 Q169,503 148.5,514 Q128,525 128,545 Q128,551 137,557 Q146,563 153,566 Q178,560 210,549 Q242,538 269.5,521.5 Q297,505 316,481.5 Q335,458 335,428 Q335,400 319,373 Q313,365 296.5,342 Q280,319 261.5,292.5 Q243,266 226.5,242.5 Q210,219 204,209 L204,186 Q233,186 250,187 Q267,188 284,190 Q299,192 314.5,193 Q330,194 345,194 Q355,194 364,187 Q373,180 373,170 Q373,162 363.5,155.5 Q354,149 344,146 Q339,145 331.5,143.5 Q324,142 312.5,140 Q301,138 287.5,136.5 Q274,135 260,133 Q236,129 212.5,125.5 Q189,122 175,120 Q170,119 166,118.5 Q162,118 159,117.5 Q156,117 153.5,117 Q151,117 149,116 L150,116 Q142,114 137,113 Q132,112 127,110 Q125,109 122.5,108.5 Q120,108 114,108 Q108,108 99,116.5 Q90,125 90,132"/> 
            <glyph glyph-name="3" unicode="&#x33;" horiz-adv-x="329" d=" M54,136 Q54,141 54,149.5 Q54,158 61.5,160 Q69,162 87,167 Q105,172 125,178 Q145,184 163,189.5 Q181,195 188,197 Q198,200 210,209 Q222,218 225.5,226.5 Q229,235 222.5,243 Q216,251 203.5,258 Q191,265 175,271.5 Q159,278 145.5,285 Q132,292 122.5,300.5 Q113,309 113,319 Q113,338 136.5,355 Q160,372 188,391 Q216,410 239.5,432.5 Q263,455 263,485 Q263,493 257,499.5 Q251,506 243,510.5 Q235,515 225.5,518 Q216,521 210,522 Q204,523 189.5,524 Q175,525 158.5,526 Q142,527 127.5,528 Q113,529 107,529 Q96,534 93.5,540 Q91,546 91,555 Q91,569 99,576 Q107,583 119,586 Q131,589 143.5,589 Q156,589 165,589 Q187,589 215,583.5 Q243,578 268.5,566 Q294,554 311.5,534 Q329,514 329,485 Q329,462 316.5,439.5 Q304,417 286,396.5 Q268,376 249,359 Q230,342 218,330 Q244,307 264.5,282.5 Q285,258 285,222 Q285,192 260.5,170 Q236,148 202.5,134 Q169,120 134.5,113.5 Q100,107 80,107 Q66,107 60,115 Q54,123 54,136"/> 
            <glyph glyph-name="4" unicode="&#x34;" horiz-adv-x="435" d=" M257,220 Q236,220 202,217.5 Q168,215 136,219 Q104,223 80.5,239 Q57,255 57,291 Q57,293 57,302 Q57,311 58,313 Q62,322 74.5,344.5 Q87,367 101,391.5 Q115,416 128,438 Q141,460 146,469 Q150,475 157.5,487.5 Q165,500 174.5,512 Q184,524 196,533.5 Q208,543 220,543 Q232,543 241,537 Q250,531 250,517 Q250,489 229,461 Q208,433 183,405 Q158,377 137,349.5 Q116,322 116,295 Q116,286 124,281.5 Q132,277 143,276 Q154,275 165.5,275.5 Q177,276 184,276 L191,276 Q195,277 205.5,279 Q216,281 228,283 Q240,285 250.5,287.5 Q261,290 265,291 Q279,297 283.5,318.5 Q288,340 295,363.5 Q302,387 317,406 Q332,425 366,425 Q381,425 393.5,418 Q406,411 415,400 Q424,389 429.5,375 Q435,361 435,347 Q435,322 427,305.5 Q419,289 405,277 Q391,265 372,256.5 Q353,248 331,239 Q321,228 320,207 Q319,186 317,165 Q315,144 308,128.5 Q301,113 279,113 Q273,113 265,115.5 Q257,118 257,128 M371,359 Q356,359 350.5,345 Q345,331 345,318 Q365,318 368,329 Q371,340 371,359"/> 
            <glyph glyph-name="5" unicode="&#x35;" horiz-adv-x="289" d=" M51,141 Q51,157 60.5,166.5 Q70,176 84,182.5 Q98,189 113.5,194.5 Q129,200 141,208 Q143,209 153,216.5 Q163,224 176,233 Q189,242 202,251.5 Q215,261 222,267 Q227,270 228.5,271.5 Q230,273 230,278 Q230,285 225,289 Q220,293 214.5,296 Q209,299 197,306 Q185,313 172,320 Q159,327 148,333 Q137,339 133,341 Q121,346 110.5,347.5 Q100,349 92,352 Q84,355 79,362 Q74,369 74,385 L74,400 Q76,407 81,426 Q86,445 92,466.5 Q98,488 103.5,506.5 Q109,525 111,533 Q115,544 123,553.5 Q131,563 143.5,563 Q156,563 162,555.5 Q168,548 170.5,537.5 Q173,527 172,515.5 Q171,504 170,496 L267,481 Q279,479 280.5,469.5 Q282,460 282,452 Q282,450 281.5,439.5 Q281,429 274,429 L148,429 Q147,426 145,423 Q141,417 141,415 L141,411 L141,407 Q158,398 183.5,387.5 Q209,377 232.5,362 Q256,347 272.5,327 Q289,307 289,281 Q289,255 265.5,226.5 Q242,198 209,174 Q176,150 141,134 Q106,118 83,118 Q65,118 58,120.5 Q51,123 51,141"/> 
            <glyph glyph-name="6" unicode="&#x36;" horiz-adv-x="361" d=" M57,180 Q57,183 56.5,190.5 Q56,198 55.5,206 Q55,214 55,221.5 Q55,229 55,232 Q55,287 72,338 Q89,389 117,435.5 Q145,482 181,524 Q217,566 256,602 Q271,616 285,620 Q299,624 319,624 L345,624 Q351,620 355.5,612.5 Q360,605 360,598 Q360,587 353.5,581 Q347,575 337.5,571 Q328,567 318,564 Q308,561 301,557 Q296,552 283,540 Q270,528 256,513.5 Q242,499 229.5,486.5 Q217,474 212,468 Q210,466 206,460.5 Q202,455 197.5,448 Q193,441 188.5,434 Q184,427 182,424 Q182,423 183,419.5 Q184,416 184,415 Q222,415 254.5,407.5 Q287,400 310.5,382.5 Q334,365 347.5,337 Q361,309 361,269 Q361,266 361,260 Q361,254 360.5,246.5 Q360,239 360,233 Q360,227 360,224 Q357,210 346,195.5 Q335,181 322.5,168 Q310,155 297.5,144.5 Q285,134 279,128 Q256,108 228,102.5 Q200,97 171,97 Q124,97 99.5,117.5 Q75,138 57,180 M115,234 Q115,200 126,178.5 Q137,157 175,157 Q197,157 219.5,165 Q242,173 260,187.5 Q278,202 289.5,221.5 Q301,241 301,265 Q301,298 290,316.5 Q279,335 259.5,344.5 Q240,354 213.5,356 Q187,358 156,358 Q146,358 138.5,342 Q131,326 125.5,305 Q120,284 117.5,263.5 Q115,243 115,234"/> 
            <glyph glyph-name="7" unicode="&#x37;" horiz-adv-x="340" d=" M175,152 Q175,155 175,162 Q175,169 176,171 L269,496 L50,511 Q36,512 31.5,523 Q27,534 27,545 Q27,556 34,563 Q41,570 53,570 L57,570 Q66,570 85.5,568.5 Q105,567 129,565.5 Q153,564 179.5,562.5 Q206,561 230,559.5 Q254,558 273.5,557 Q293,556 302,555 Q319,553 329.5,544.5 Q340,536 340,519 Q340,516 339.5,510.5 Q339,505 339,504 L228,141 Q220,118 197,118 Q182,118 178.5,129.5 Q175,141 175,152"/> 
            <glyph glyph-name="8" unicode="&#x38;" horiz-adv-x="336" d=" M60,223 Q60,244 68,263.5 Q76,283 88,301.5 Q100,320 114.5,336.5 Q129,353 142,367 Q131,377 119.5,389 Q108,401 98,414 Q88,427 81.5,442 Q75,457 75,473 Q75,499 91.5,520.5 Q108,542 132,557 Q156,572 184,580.5 Q212,589 235,589 Q268,589 290.5,567 Q313,545 313,513 Q313,495 306.5,477.5 Q300,460 290.5,442.5 Q281,425 269,409.5 Q257,394 246,381 Q263,363 279.5,342.5 Q296,322 308.5,300 Q321,278 328.5,254 Q336,230 336,204 Q336,182 328,163 Q320,144 306,130 Q292,116 272.5,108 Q253,100 231,100 Q206,100 176.5,108 Q147,116 121,132 Q95,148 77.5,170.5 Q60,193 60,223 M126,225 Q126,208 138,197 Q150,186 166.5,179 Q183,172 201.5,169 Q220,166 232,166 Q252,166 264,176.5 Q276,187 276,207 Q276,225 269,242.5 Q262,260 251,275.5 Q240,291 226.5,305 Q213,319 201,330 Q190,321 177,309.5 Q164,298 153,285 Q142,272 134,256.5 Q126,241 126,225 M142,474 Q142,465 146,455 Q150,445 156.5,437 Q163,429 172,423.5 Q181,418 190.5,418 Q200,418 210.5,428.5 Q221,439 229,453.5 Q237,468 242,483.5 Q247,499 247,509 Q247,512 247,516 Q247,520 245.5,523.5 Q244,527 240.5,529 Q237,531 230.5,529 Q224,527 209.5,523 Q195,519 180,512.5 Q165,506 153.5,496.5 Q142,487 142,474"/> 
            <glyph glyph-name="9" unicode="&#x39;" horiz-adv-x="372" d=" M215,140 Q215,161 219.5,181 Q224,201 229.5,221.5 Q235,242 239.5,262 Q244,282 244,303 Q232,303 221,299.5 Q210,296 199,292 Q188,288 176.5,284.5 Q165,281 152,281 Q98,281 71.5,313 Q45,345 45,396 Q45,431 58.5,466 Q72,501 95.5,529.5 Q119,558 151,575.5 Q183,593 219,593 Q242,593 256,588.5 Q270,584 281.5,576.5 Q293,569 304.5,557.5 Q316,546 334,533 Q341,528 348,526 Q355,524 360,521 Q365,518 368.5,513 Q372,508 372,496 Q372,494 371.5,488.5 Q371,483 371,481 L267,126 Q261,103 241,103 Q224,103 219.5,114.5 Q215,126 215,140 M104,395 Q104,371 114.5,355.5 Q125,340 150,340 Q178,340 200.5,353 Q223,366 241.5,385.5 Q260,405 273.5,429 Q287,453 297,474 Q299,479 302,487 Q305,495 304,496 Q303,500 291.5,506.5 Q280,513 265.5,519 Q251,525 237.5,529.5 Q224,534 219,534 Q195,534 174.5,520.5 Q154,507 138,486.5 Q122,466 113,441.5 Q104,417 104,395"/> 
            <glyph glyph-name=":" unicode="&#x3A;" horiz-adv-x="189" d=" M93,144 Q93,160 107,174 Q121,188 138,188 Q157,188 169.5,172.5 Q182,157 182,140 Q182,117 167.5,107.5 Q153,98 133,98 Q113,98 103,111 Q93,124 93,144 M99,356 Q99,359 99,365.5 Q99,372 100.5,379.5 Q102,387 105,392.5 Q108,398 114,398 L166,398 Q170,398 174.5,393.5 Q179,389 182,383 Q185,377 187,370.5 Q189,364 189,361 Q189,342 173,329 Q157,316 139.5,316 Q122,316 110.5,327 Q99,338 99,356"/> 
            <glyph glyph-name=";" unicode="&#x3B;" horiz-adv-x="165" d=" M55,37 Q55,50 65.5,59 Q76,68 78,81 Q80,97 79,111 Q78,125 80,135 Q82,145 89.5,150.5 Q97,156 116,156 Q137,156 145,148.5 Q153,141 153,120 Q153,108 148.5,89 Q144,70 135,52 Q126,34 113.5,20.5 Q101,7 86.5,7 Q72,7 63.5,15 Q55,23 55,37 M82,343 Q82,364 94.5,374.5 Q107,385 127,385 Q150,385 157.5,377 Q165,369 165,347 Q165,302 119,302 Q102,302 92,314 Q82,326 82,343"/> 
            <glyph glyph-name="=" unicode="&#x3D;" horiz-adv-x="412" d=" M64,235 Q64,240 69,247.5 Q74,255 79,257 Q93,258 130,261.5 Q167,265 208,268.5 Q249,272 286,275 Q323,278 337,279 Q339,280 350.5,280 Q362,280 367,280 Q370,280 381.5,280 Q393,280 397,279 Q408,275 410,268.5 Q412,262 412,253.5 Q412,245 410,238.5 Q408,232 397,228 Q382,226 345.5,223 Q309,220 267.5,216.5 Q226,213 189.5,210 Q153,207 138,206 Q136,205 126,205 Q116,205 111,205 Q102,205 94,205.5 Q86,206 79,208.5 Q72,211 68,217 Q64,223 64,235 M71,446 Q71,460 79,466 Q87,472 98,472 L115,472 Q130,472 168,471 Q206,470 248.5,468.5 Q291,467 329,466 Q367,465 382,464 Q393,460 395.5,453.5 Q398,447 398,439.5 Q398,432 395.5,422.5 Q393,413 382,413 L93,413 Q90,413 86,417 Q82,421 78.5,426.5 Q75,432 73,437.5 Q71,443 71,446"/> 
            <glyph glyph-name="?" unicode="&#x3F;" horiz-adv-x="407" d=" M177,62 Q177,81 192.5,93.5 Q208,106 226,106 Q231,106 238,102.5 Q245,99 251,93 Q257,87 261.5,80.5 Q266,74 266,68 Q266,48 250.5,32 Q235,16 215,16 Q195,16 186,30.5 Q177,45 177,62 M192,227 Q192,258 203.5,284 Q215,310 232.5,333 Q250,356 270,377.5 Q290,399 307.5,422 Q325,445 336.5,470.5 Q348,496 348,527 Q348,548 340.5,569 Q333,590 319,607 Q305,624 286,635 Q267,646 245,646 Q216,646 192,628.5 Q168,611 148.5,590 Q129,569 114.5,551.5 Q100,534 89,534 Q78,534 68.5,540.5 Q59,547 59,560 Q59,588 79,614 Q99,640 127.5,660 Q156,680 188,692.5 Q220,705 244,705 Q280,705 309.5,690 Q339,675 361,650 Q383,625 395,593 Q407,561 407,527 Q407,489 396,458 Q385,427 366.5,399 Q348,371 324,344.5 Q300,318 274,290 Q266,276 262,255.5 Q258,235 254.5,216 Q251,197 244.5,184 Q238,171 225,171 Q214,171 207.5,176.5 Q201,182 197.5,190.5 Q194,199 193,209 Q192,219 192,227"/> 
            <glyph glyph-name="A" unicode="&#x41;" horiz-adv-x="390" d=" M285,242 L152,242 Q151,242 148.5,236 Q146,230 144,227 Q142,219 137,200.5 Q132,182 126,160.5 Q120,139 115,120 Q110,101 108,94 Q103,83 97,80.5 Q91,78 82,78 Q68,78 61.5,88.5 Q55,99 55,113 L55,119 Q55,121 56,123 L181,560 Q189,571 192.5,587.5 Q196,604 200.5,619.5 Q205,635 212,646 Q219,657 234,657 Q243,657 251.5,655 Q260,653 263,641 L389,116 Q389,115 389.5,107.5 Q390,100 390,97 Q390,83 385,73 Q380,63 363,63 Q352,63 346.5,69 Q341,75 337,86 Q334,94 328,115 Q322,136 314.5,160 Q307,184 301,205 Q295,226 292,234 M174,319 Q174,316 175,312 Q176,308 181,308 L275,308 L233,493 Q233,495 230,495 Q224,495 222,488.5 Q220,482 218,478 Q215,469 209,447 Q203,425 196,400.5 Q189,376 182.5,354 Q176,332 174,323"/> 
            <glyph glyph-name="B" unicode="&#x42;" horiz-adv-x="482" d=" M75,118 Q75,123 75,136 Q75,149 74.5,163 Q74,177 74,189.5 Q74,202 74,207 Q74,215 74,229.5 Q74,244 74.5,258 Q75,272 75,283 Q75,294 75,296 Q75,305 77,334.5 Q79,364 81.5,398 Q84,432 86,464 Q88,496 90,511 Q91,522 91.5,538.5 Q92,555 95.5,570.5 Q99,586 107.5,597 Q116,608 133,608 Q135,608 141,607.5 Q147,607 149,607 L393,562 Q406,560 420.5,554 Q435,548 447,538.5 Q459,529 467,516 Q475,503 475,488 Q475,463 459.5,447.5 Q444,432 423,420 Q402,408 381,397 Q360,386 349,370 Q368,365 391,356.5 Q414,348 434.5,335.5 Q455,323 468.5,305 Q482,287 482,263 Q482,237 463.5,214.5 Q445,192 415,172.5 Q385,153 348,137.5 Q311,122 274.5,111 Q238,100 205.5,94 Q173,88 153,88 Q130,88 110,93 Q90,98 75,118 M156,540 Q151,495 146.5,445.5 Q142,396 138,345 Q134,294 132,243.5 Q130,193 130,145 Q143,145 169,150 Q195,155 227,164 Q259,173 292.5,184.5 Q326,196 353.5,209 Q381,222 398.5,236 Q416,250 416,263 Q416,273 402,283 Q388,293 378,296 Q373,297 363,299.5 Q353,302 342.5,304.5 Q332,307 323.5,309 Q315,311 312,311 Q306,312 291,313 Q276,314 259.5,315 Q243,316 228.5,317 Q214,318 208,318 Q197,323 195,329 Q193,335 193,343 Q193,353 196.5,362.5 Q200,372 208.5,376.5 Q217,381 240.5,393 Q264,405 290,418 Q316,431 339,442.5 Q362,454 371,459 Q372,459 377,461.5 Q382,464 387,468 Q392,472 396.5,476.5 Q401,481 401,485 Q401,492 393,496 Q368,506 338.5,514 Q309,522 278,528 Q247,534 217.5,537 Q188,540 164,540"/> 
            <glyph glyph-name="C" unicode="&#x43;" horiz-adv-x="529" d=" M443,481 Q441,483 441,484 L440,484 M52,345 Q52,396 67,442 Q82,488 108.5,525.5 Q135,563 169.5,590 Q204,617 243,631 Q247,631 254.5,631.5 Q262,632 273,632 L302,632 Q324,632 353.5,627.5 Q383,623 409,610.5 Q435,598 453,574.5 Q471,551 471,512 Q471,499 463,491.5 Q455,484 445,484 L441,484 Q436,490 428,500 Q420,510 411.5,520.5 Q403,531 395.5,540 Q388,549 383.5,553.5 Q379,558 368.5,561 Q358,564 346.5,565 Q335,566 324,566 Q313,566 306,566 L302,566 Q264,566 228.5,549.5 Q193,533 165.5,504 Q138,475 121,433.5 Q104,392 104,343 Q104,296 121.5,264.5 Q139,233 167,214.5 Q195,196 228.5,188.5 Q262,181 294.5,181 Q327,181 358,191.5 Q389,202 415,215 Q438,226 461,234.5 Q484,243 506,243 Q507,243 510,242.5 Q513,242 516,242 L522,242 Q529,230 529,219 Q529,214 526,206.5 Q523,199 521,194 Q464,152 409.5,133 Q355,114 290,114 L254,114 Q243,114 233.5,114.5 Q224,115 218,115 Q184,128 153.5,148.5 Q123,169 100.5,197 Q78,225 65,261.5 Q52,298 52,345"/> 
            <glyph glyph-name="D" unicode="&#x44;" horiz-adv-x="503" d=" M43,116 Q43,119 43,126 Q43,133 44,135 L110,616 Q112,633 126.5,643.5 Q141,654 157,654 Q187,654 224.5,643 Q262,632 300.5,613 Q339,594 375.5,567.5 Q412,541 440.5,510.5 Q469,480 486,446.5 Q503,413 503,379 Q503,331 484,292 Q465,253 433.5,223 Q402,193 361,170 Q320,147 275.5,131 Q231,115 186,105 Q141,95 103,90 Q96,79 90,73 Q84,67 73,67 Q64,67 58,72 Q52,77 49,84.5 Q46,92 44.5,100.5 Q43,109 43,116 M110,167 Q110,163 111.5,161 Q113,159 118,157 Q145,159 180,166.5 Q215,174 251.5,187 Q288,200 322.5,218 Q357,236 384,259 Q411,282 427.5,311 Q444,340 444,375.5 Q444,411 415,448.5 Q386,486 344,517 Q302,548 255.5,567.5 Q209,587 175,587 Q174,587 173.5,586.5 Q173,586 172,586 L169,586 L110,172"/> 
            <glyph glyph-name="E" unicode="&#x45;" horiz-adv-x="405" d=" M116,594 Q118,608 126.5,612.5 Q135,617 146,617 Q149,617 154,616.5 Q159,616 160,616 L360,557 Q370,554 380,546 Q390,538 390,527 Q390,523 387,517.5 Q384,512 379.5,507 Q375,502 369.5,499 Q364,496 360,497 L197,542 Q196,542 191.5,542.5 Q187,543 185,543 Q179,543 172.5,541 Q166,539 168,527 Q166,519 163,498 Q160,477 156.5,453 Q153,429 150,408 Q147,387 146,379 Q145,379 145,375 L145,373 Q145,372 146,372 L375,357 Q385,356 395,346.5 Q405,337 405,327.5 Q405,318 399.5,312 Q394,306 386.5,302.5 Q379,299 370.5,298 Q362,297 355,297 Q305,297 256,301 Q207,305 157,305 Q156,305 152,305.5 Q148,306 143.5,305.5 Q139,305 135,303.5 Q131,302 131,298 Q130,292 127.5,277 Q125,262 123,245.5 Q121,229 119,214.5 Q117,200 116,194 L116,182 Q116,177 116,172 Q116,167 123,165 Q126,165 133,164.5 Q140,164 147.5,164 Q155,164 161.5,164 Q168,164 171,164 Q216,164 259,172 Q302,180 347,180 Q360,180 368,173.5 Q376,167 376,153 Q376,137 364,130 Q352,123 338,120 Q330,118 316,116 Q302,114 288,111.5 Q274,109 262.5,107 Q251,105 249.5,105 Q248,105 238.5,105 Q229,105 216.5,104.5 Q204,104 191,104 Q178,104 171,104 Q167,104 156,104 Q145,104 132.5,104.5 Q120,105 109,105 Q98,105 94,105.5 Q90,106 84,108.5 Q78,111 72,114.5 Q66,118 61.5,123.5 Q57,129 57,135 L57,216"/> 
            <glyph glyph-name="F" unicode="&#x46;" horiz-adv-x="408" d=" M97,601 Q97,604 101.5,609.5 Q106,615 112.5,619.5 Q119,624 125.5,627.5 Q132,631 137,631 L141,631 Q160,628 192.5,623 Q225,618 256.5,613.5 Q288,609 312.5,605.5 Q337,602 341,601 Q349,599 360.5,597 Q372,595 382.5,591 Q393,587 400.5,579.5 Q408,572 408,560 Q408,546 400,540 Q392,534 379,534 Q352,534 325.5,538.5 Q299,543 273,549 Q247,555 220.5,559.5 Q194,564 167,564 L156,564 Q151,542 149.5,522 Q148,502 148.5,482.5 Q149,463 150,442 Q151,421 151,398 L348,398 Q359,398 365,385 Q371,372 371,364.5 Q371,357 368,347.5 Q365,338 356,338 L143,338 L111,113 Q109,99 101,94.5 Q93,90 82,90 Q49,90 52,127"/> 
            <glyph glyph-name="G" unicode="&#x47;" horiz-adv-x="611" d=" M48,227 Q48,230 47.5,238 Q47,246 46.5,254.5 Q46,263 46,271 Q46,279 46,282 Q46,343 69.5,406.5 Q93,470 135,522 Q177,574 234,607.5 Q291,641 358,641 Q390,641 413,637 Q436,633 454.5,623.5 Q473,614 490.5,598.5 Q508,583 529,560 Q530,558 532.5,552.5 Q535,547 536,545 L536,541 Q536,528 526.5,521.5 Q517,515 506,515 Q495,515 483.5,524.5 Q472,534 457,545 Q442,556 420,565.5 Q398,575 366,575 Q312,575 264.5,549 Q217,523 182,482 Q147,441 127,389.5 Q107,338 107,286 Q107,223 137,195 Q167,167 229,167 Q283,167 330,186.5 Q377,206 418,241 L418,243 Q418,244 419,245 Q419,252 409.5,254.5 Q400,257 388.5,260.5 Q377,264 367.5,271 Q358,278 358,293 Q358,295 358,305 Q358,315 366,315 L595,315 Q606,315 608.5,305.5 Q611,296 611,289.5 Q611,283 608.5,271.5 Q606,260 595,260 L507,260 Q503,260 500,254.5 Q497,249 495,242 Q493,235 492,228.5 Q491,222 491,219 Q491,205 499.5,193.5 Q508,182 508,167 Q508,156 503,146.5 Q498,137 485,137 Q476,137 469.5,142 Q463,147 457.5,153 Q452,159 446.5,164 Q441,169 433,169 Q431,169 428.5,168.5 Q426,168 425,168 Q398,153 376,141.5 Q354,130 332,122.5 Q310,115 286.5,111 Q263,107 233,107 Q201,107 171,112.5 Q141,118 116.5,132 Q92,146 74.5,169 Q57,192 48,227"/> 
            <glyph glyph-name="H" unicode="&#x48;" horiz-adv-x="484" d=" M350,106 Q350,108 350,110.5 Q350,113 351,114 L388,306 L388,314 Q375,314 342.5,315 Q310,316 273,317.5 Q236,319 203.5,320 Q171,321 158,321 L154,321 Q150,321 148,320 Q146,319 143,314 Q141,305 134.5,284 Q128,263 121,239.5 Q114,216 108,195 Q102,174 99,166 Q96,156 90,149.5 Q84,143 73,143 Q56,143 51.5,155.5 Q47,168 47,181 L47,195 L143,632 Q145,639 148,648.5 Q151,658 156,666 Q161,674 168,679.5 Q175,685 184,685 Q196,685 203.5,678 Q211,671 211,659 Q211,657 210.5,652.5 Q210,648 210,647 L166,417 Q165,416 165,410 Q165,404 165,401 Q165,393 166,386.5 Q167,380 180,380 L395,380 L402,388 Q403,394 406,408.5 Q409,423 413,439.5 Q417,456 420,470.5 Q423,485 425,491 Q430,514 451,514 Q463,514 473.5,503.5 Q484,493 484,480 L484,476 L410,106 Q408,97 399.5,86.5 Q391,76 381,76 Q367,76 358.5,84 Q350,92 350,106"/> 
            <glyph glyph-name="I" unicode="&#x49;" horiz-adv-x="220" d=" M153,564 L153,587 Q153,601 149,611 Q145,621 145,635 Q145,660 170,660 Q190,660 205,651.5 Q220,643 220,621 Q220,618 219.5,610 Q219,602 219,601 L175,135 L175,127 Q175,116 178.5,106.5 Q182,97 182,86 Q182,69 169.5,64.5 Q157,60 144,60 Q137,60 126.5,61.5 Q116,63 116,75 L116,157"/> 
            <glyph glyph-name="J" unicode="&#x4A;" horiz-adv-x="349" d=" M37,183 Q37,190 37,199.5 Q37,209 39,217.5 Q41,226 46.5,232 Q52,238 63,238 Q71,238 78,233.5 Q85,229 89,223 Q89,200 92.5,179.5 Q96,159 105.5,144 Q115,129 131,120 Q147,111 171,111 Q186,111 195.5,112.5 Q205,114 211.5,119 Q218,124 222,133 Q226,142 230,156 Q241,259 250.5,354 Q260,449 260,549 Q260,552 260,559 Q260,566 260,574.5 Q260,583 259.5,590 Q259,597 259,600 Q255,608 247.5,611 Q240,614 232.5,616.5 Q225,619 219.5,624 Q214,629 214,641 Q214,655 223,662 Q232,669 244.5,672 Q257,675 270.5,675 Q284,675 292.5,675 Q301,675 310.5,675 Q320,675 328.5,673 Q337,671 343,665.5 Q349,660 349,649 Q349,624 326,608 L296,186 Q291,120 260.5,82.5 Q230,45 159,45 Q131,45 108.5,57 Q86,69 70,88.5 Q54,108 45.5,132.5 Q37,157 37,183"/> 
            <glyph glyph-name="K" unicode="&#x4B;" horiz-adv-x="466" d=" M155,623 Q157,640 165.5,650.5 Q174,661 191.5,661 Q209,661 212,655 Q215,649 215,632 Q215,602 211.5,573 Q208,544 203.5,514.5 Q199,485 195.5,456 Q192,427 192,398 L192,387 L340,475 Q340,476 346.5,476 Q353,476 356,476 Q367,476 379.5,472.5 Q392,469 392,453 Q392,446 383,436 Q374,426 369,424 L221,327 Q217,325 211.5,320 Q206,315 206,309 Q206,305 207,305 L443,150 Q458,140 462,135 Q466,130 466,117 Q466,106 459,98 Q452,90 440,90 L438,90 Q437,90 436,91 Q432,92 423.5,94.5 Q415,97 414,98 L165,256 L133,69 Q131,61 122.5,60.5 Q114,60 110,60 Q103,60 92,62 Q81,64 81,76 L81,128"/> 
            <glyph glyph-name="L" unicode="&#x4C;" horiz-adv-x="411" d=" M143,589 Q144,595 146.5,605.5 Q149,616 153.5,625.5 Q158,635 164.5,642 Q171,649 180,649 Q194,649 202,641 Q210,633 210,619 L210,612 L143,190 L143,138 Q190,138 236,142 Q282,146 328,146 Q331,146 338.5,146 Q346,146 354,146 Q362,146 369.5,145.5 Q377,145 380,145 Q390,143 400.5,135 Q411,127 411,116 Q411,105 400.5,97 Q390,89 380,86 Q370,85 349,84 Q328,83 302,81.5 Q276,80 247,78.5 Q218,77 192,75.5 Q166,74 145,72.5 Q124,71 114,71 L101,71 Q94,71 85.5,72.5 Q77,74 77,86 L77,145"/> 
            <glyph glyph-name="M" unicode="&#x4D;" horiz-adv-x="617" d=" M298,127 Q295,119 289,119 Q283,119 275,119 Q258,119 250,129.5 Q242,140 239,157 L188,438 L180,438 Q179,438 176.5,432 Q174,426 170.5,418 Q167,410 163.5,401 Q160,392 158,386 Q154,373 144.5,340.5 Q135,308 124.5,271.5 Q114,235 104.5,202.5 Q95,170 91,157 Q89,147 81,137 Q73,127 62,127 Q48,127 40,135 Q32,143 32,157 L32,164 Q34,173 39,191.5 Q44,210 50,233.5 Q56,257 63.5,283 Q71,309 77.5,332 Q84,355 90,373.5 Q96,392 99,401 Q100,405 109,425.5 Q118,446 130,472 Q142,498 154,523.5 Q166,549 173,564 Q181,581 188.5,587.5 Q196,594 213,594 Q217,594 227,594 Q237,594 239,586 Q240,576 242.5,554.5 Q245,533 247.5,506 Q250,479 253.5,449 Q257,419 260,392 Q263,365 265.5,343.5 Q268,322 269,312 Q270,302 273,286.5 Q276,271 284,260 L439,586 Q446,600 456,612 Q466,624 483,624 Q491,624 501,622 Q511,620 513,608 L587,223 Q590,217 595,205 Q600,193 605,179 Q610,165 613.5,150.5 Q617,136 617,123 Q617,97 591,97 Q573,97 564,112.5 Q555,128 550,142 Q548,148 544.5,158 Q541,168 537.5,178.5 Q534,189 531,198 Q528,207 528,209 L467,511"/> 
            <glyph glyph-name="N" unicode="&#x4E;" horiz-adv-x="558" d=" M181,493 L137,175 Q138,165 139,152 Q140,139 137.5,127.5 Q135,116 128,108 Q121,100 106,100 Q94,100 87.5,109 Q81,118 79,130.5 Q77,143 77,155.5 Q77,168 77,175 L77,212 Q78,223 81.5,246 Q85,269 89.5,298.5 Q94,328 99,360 Q104,392 108.5,421.5 Q113,451 116.5,474 Q120,497 122,508.5 Q124,520 126.5,537.5 Q129,555 134.5,571.5 Q140,588 150,600 Q160,612 177,612 Q211,612 230.5,589.5 Q250,567 261.5,535.5 Q273,504 280.5,469.5 Q288,435 299,412 Q302,405 315,381 Q328,357 343,329 Q358,301 373,274 Q388,247 396,234 Q397,233 401.5,226.5 Q406,220 411.5,211.5 Q417,203 423,194.5 Q429,186 432.5,182 Q436,178 437.5,176 Q439,174 444,174 L446,174 Q447,174 447,175 L507,508 Q509,522 517,526.5 Q525,531 536,531 Q538,531 548,531 Q558,531 558,523 L558,449 L499,123 Q493,86 459,86 Q443,86 426,98 Q409,110 394.5,126.5 Q380,143 368.5,161 Q357,179 351,190 L188,508"/> 
            <glyph glyph-name="O" unicode="&#x4F;" horiz-adv-x="547" d=" M42,332 Q42,400 65.5,459 Q89,518 130.5,561.5 Q172,605 230,629.5 Q288,654 357,654 Q397,654 432,630.5 Q467,607 492.5,571.5 Q518,536 532.5,494 Q547,452 547,415 Q547,357 521.5,301.5 Q496,246 453.5,202 Q411,158 355.5,131 Q300,104 241,104 Q192,104 154.5,123 Q117,142 92,173.5 Q67,205 54.5,246.5 Q42,288 42,332 M103,328 Q103,256 138,214 Q173,172 245,172 Q301,172 348.5,197 Q396,222 428,269 Q448,298 466.5,337.5 Q485,377 485,419 Q485,439 477,463 Q469,487 456,509.5 Q443,532 426,550.5 Q409,569 390,577 L365,577 Q362,577 359,577.5 Q356,578 354,578 L339,578 Q222,578 162.5,511 Q103,444 103,328"/> 
            <glyph glyph-name="P" unicode="&#x50;" horiz-adv-x="454" d=" M46,93 L105,611 Q100,647 114,662.5 Q128,678 162,678 Q183,678 213,672 Q243,666 275,655 Q307,644 339.5,628 Q372,612 397,592 Q422,572 438,547.5 Q454,523 454,496 Q454,432 422.5,390 Q391,348 343,323.5 Q295,299 237.5,290.5 Q180,282 127,285 L105,78 Q104,68 95,58 Q86,48 76,48 Q61,48 53.5,57.5 Q46,67 46,81 M142,352 Q143,352 148.5,351.5 Q154,351 161,350.5 Q168,350 174.5,350 Q181,350 184,350 Q217,350 254,357 Q291,364 322,380.5 Q353,397 373.5,424 Q394,451 394,492 Q394,510 380.5,524.5 Q367,539 348.5,550 Q330,561 311.5,569 Q293,577 283,581 Q273,585 256,591.5 Q239,598 222.5,604 Q206,610 193.5,614 Q181,618 179,618 L172,618 L135,359"/> 
            <glyph glyph-name="Q" unicode="&#x51;" horiz-adv-x="522" d=" M33,168 Q33,171 32.5,178 Q32,185 31.5,193.5 Q31,202 31,209 Q31,216 31,219 Q31,257 40,304 Q49,351 66,399.5 Q83,448 108,494.5 Q133,541 165.5,577 Q198,613 238,635 Q278,657 325,657 Q354,657 371,653.5 Q388,650 399.5,642 Q411,634 421,621 Q431,608 447,589 Q449,587 458,581.5 Q467,576 469,575 Q487,560 498,540.5 Q509,521 514,500 Q519,479 520.5,456.5 Q522,434 522,412 Q522,376 516,345 Q510,314 499,286 Q488,258 471,231 Q454,204 432,175 L499,109 Q499,108 499.5,103 Q500,98 500,96 Q500,78 494.5,74 Q489,70 470,70 Q467,70 461,70.5 Q455,71 455,72 L381,131 Q333,105 285,84 Q237,63 183,63 Q152,63 129,69 Q106,75 89,87.5 Q72,100 58.5,120 Q45,140 33,168 M91,223 Q91,177 111.5,150 Q132,123 181,123 Q193,123 218,128.5 Q243,134 267.5,142 Q292,150 310.5,160 Q329,170 329,179 Q329,185 323,189 Q317,193 310,198.5 Q303,204 297,212.5 Q291,221 291,234.5 Q291,248 297,256.5 Q303,265 317,265 Q328,265 336,259 Q344,253 351.5,245.5 Q359,238 367,232 Q375,226 384,226 Q403,226 417.5,249 Q432,272 442,302.5 Q452,333 457,363 Q462,393 462,408 Q462,414 461,434.5 Q460,455 456,477 Q452,499 444.5,516.5 Q437,534 425,534 L344,534 Q340,534 338,538 Q336,542 335.5,547 Q335,552 335,556 Q335,560 335,561 Q335,570 337,577.5 Q339,585 351,589 Q349,598 339,597.5 Q329,597 326,597 Q290,597 259,576.5 Q228,556 201.5,523.5 Q175,491 154.5,449.5 Q134,408 120,366.5 Q106,325 98.5,287 Q91,249 91,223"/> 
            <glyph glyph-name="R" unicode="&#x52;" horiz-adv-x="444" d=" M347,71 Q338,78 314.5,96 Q291,114 265,134 Q239,154 216,172 Q193,190 184,197 Q168,210 161,215.5 Q154,221 154,237 Q154,246 156.5,252.5 Q159,259 170,264 L355,345 Q369,352 377,360 Q385,368 385,381.5 Q385,395 377,404 Q329,457 272,502.5 Q215,548 147,574 L110,86 Q109,75 100.5,72.5 Q92,70 85,70 Q73,70 68,76 Q63,82 59,93 Q59,96 58.5,102 Q58,108 58,115.5 Q58,123 58,129 Q58,135 58,138.5 Q58,142 58,149 Q58,156 58,163 Q58,170 58.5,175.5 Q59,181 59,182 Q60,199 62,234.5 Q64,270 67,314.5 Q70,359 73,408 Q76,457 79,501.5 Q82,546 84.5,581.5 Q87,617 88,634 Q90,643 97,649.5 Q104,656 114,656 L118,656 Q140,649 172.5,633.5 Q205,618 241,597 Q277,576 313.5,550.5 Q350,525 379,497 Q408,469 426,439.5 Q444,410 444,382 Q444,348 424,324.5 Q404,301 375,284 Q346,267 314,255.5 Q282,244 258,234 L251,227 Q286,200 323.5,167.5 Q361,135 392,101 L392,93 Q392,82 385.5,73 Q379,64 366,64 Q360,64 356,65.5 Q352,67 347,71"/> 
            <glyph glyph-name="S" unicode="&#x53;" horiz-adv-x="430" d=" M58,260 Q58,263 58.5,273 Q59,283 59,286 Q64,297 69.5,299.5 Q75,302 84,302 Q97,302 105,288.5 Q113,275 119.5,255.5 Q126,236 133.5,212.5 Q141,189 153.5,169.5 Q166,150 186,136.5 Q206,123 237,123 Q252,123 275,128 Q298,133 319,143 Q340,153 355,168.5 Q370,184 370,205 Q370,230 349,249 Q328,268 297,285.5 Q266,303 229,321.5 Q192,340 161,364.5 Q130,389 109,422 Q88,455 88,501 Q88,540 102,569 Q116,598 140.5,617.5 Q165,637 197.5,647 Q230,657 267,657 Q293,657 315.5,647 Q338,637 355,619.5 Q372,602 382,579 Q392,556 392,530 L392,508 Q385,502 379.5,501 Q374,500 366,500 Q353,500 343.5,510.5 Q334,521 327.5,535 Q321,549 317,562.5 Q313,576 310,582 Q301,588 289.5,592.5 Q278,597 266,597 Q244,597 222.5,592 Q201,587 184.5,575.5 Q168,564 157.5,546.5 Q147,529 147,505 Q147,465 168,438.5 Q189,412 220.5,392 Q252,372 288.5,356 Q325,340 356.5,320 Q388,300 409,273.5 Q430,247 430,207 Q430,171 411.5,144.5 Q393,118 364.5,100 Q336,82 302.5,73 Q269,64 238,64 Q199,64 166,80.5 Q133,97 109,124 Q85,151 71.5,186.5 Q58,222 58,260"/> 
            <glyph glyph-name="T" unicode="&#x54;" horiz-adv-x="473" d=" M184,114 Q184,167 187.5,219.5 Q191,272 195.5,324.5 Q200,377 204,429.5 Q208,482 208,535 Q208,539 208,547 Q208,555 207.5,562.5 Q207,570 206.5,575.5 Q206,581 206,582 L199,590 Q164,587 127.5,584.5 Q91,582 56,582 Q45,582 33,585 Q21,588 21,604 Q21,613 26.5,620 Q32,627 40.5,631.5 Q49,636 58,638.5 Q67,641 73,641 Q87,642 121.5,644.5 Q156,647 195,649.5 Q234,652 268.5,654 Q303,656 317,656 Q318,656 327,656 Q336,656 347,656.5 Q358,657 369.5,657 Q381,657 388,657 Q392,657 401.5,657 Q411,657 422.5,656.5 Q434,656 444,656 Q454,656 458,656 Q463,653 468,646 Q473,639 473,634 Q473,631 470.5,626.5 Q468,622 464,617 Q460,612 456.5,608 Q453,604 451,604 L273,590 L236,79 Q235,73 225,68.5 Q215,64 210,64 Q199,64 193.5,69 Q188,74 186,81.5 Q184,89 184,98 Q184,107 184,114"/> 
            <glyph glyph-name="U" unicode="&#x55;" horiz-adv-x="506" d=" M53,366 Q53,392 54,415.5 Q55,439 57,462.5 Q59,486 62,511.5 Q65,537 69,567 Q71,570 79.5,578.5 Q88,587 91,589 L92,589 Q93,589 93,589.5 Q93,590 94,590 Q102,590 109,585 Q116,580 121,574 L121,534 Q121,490 117,448 Q113,406 113,363 Q113,337 117,300 Q121,263 133.5,228 Q146,193 168.5,168.5 Q191,144 227,144 Q278,144 314,164.5 Q350,185 375,218 Q400,251 415,294 Q430,337 438,382.5 Q446,428 449,472 Q452,516 453,552 Q458,563 464,565.5 Q470,568 479,568 Q491,568 496,562 Q501,556 505,545 Q505,540 505.5,529 Q506,518 506,506 Q506,494 506,482.5 Q506,471 506,467 Q506,405 491,337.5 Q476,270 443,214 Q410,158 357,121.5 Q304,85 229,85 Q176,85 142,112.5 Q108,140 88.5,182 Q69,224 61,273.5 Q53,323 53,366"/> 
            <glyph glyph-name="V" unicode="&#x56;" horiz-adv-x="491" d=" M24,576 Q23,577 23,581 Q23,585 23,587 Q23,598 30,605.5 Q37,613 50,613 Q67,613 76,596.5 Q85,580 90,568 Q93,557 100,532.5 Q107,508 115.5,477.5 Q124,447 134,413 Q144,379 152.5,348.5 Q161,318 168,293.5 Q175,269 179,258 Q181,250 185.5,236 Q190,222 197,206 Q204,190 212.5,175.5 Q221,161 231,154 L238,161 L438,635 Q441,643 450.5,646.5 Q460,650 468,650 Q482,650 486.5,640.5 Q491,631 491,620 Q491,617 490.5,611.5 Q490,606 490,605 L275,95 Q269,79 260,75 Q251,71 238,71 Q236,71 230.5,71.5 Q225,72 223,73 Q218,77 210,84.5 Q202,92 193,101.5 Q184,111 176,120.5 Q168,130 163.5,139.5 Q159,149 151,168.5 Q143,188 135,208 Q127,228 120,244.5 Q113,261 112,265 Q109,276 101.5,300.5 Q94,325 85.5,355.5 Q77,386 67,420 Q57,454 48.5,484.5 Q40,515 33.5,539.5 Q27,564 24,576"/> 
            <glyph glyph-name="W" unicode="&#x57;" horiz-adv-x="631" d=" M342,317 Q337,308 325.5,285 Q314,262 301,236 Q288,210 276.5,187 Q265,164 260,155 Q247,129 225.5,108 Q204,87 174,87 Q144,87 123,106.5 Q102,126 87.5,157.5 Q73,189 64.5,228 Q56,267 52,305.5 Q48,344 46.5,377.5 Q45,411 45,432 Q45,436 45,446 Q45,456 45.5,467.5 Q46,479 46,488.5 Q46,498 46,502 Q50,508 57.5,513 Q65,518 72,518 Q73,518 74,517.5 Q75,517 76,517 Q78,515 87,506.5 Q96,498 98,495 Q98,484 100,458 Q102,432 104.5,402.5 Q107,373 109,346.5 Q111,320 113,310 Q113,308 115.5,296 Q118,284 121.5,269 Q125,254 129,238.5 Q133,223 135,214 Q136,208 139,198 Q142,188 147,178.5 Q152,169 158,161.5 Q164,154 172,154 Q183,154 189,160.5 Q195,167 201,177 Q223,213 244,254.5 Q265,296 283.5,339 Q302,382 318.5,424 Q335,466 349,502 Q351,511 361.5,510.5 Q372,510 375.5,510 Q379,510 389,510.5 Q399,511 401,502 Q401,491 401.5,464 Q402,437 403,406 Q404,375 405.5,348 Q407,321 408,310 Q408,308 412,291 Q416,274 420.5,251.5 Q425,229 430,206 Q435,183 438,170 Q438,168 440,162 Q442,156 444,149.5 Q446,143 449.5,137.5 Q453,132 456,132 Q464,132 468,140 Q496,197 516,265 Q536,333 548,404 Q560,475 565.5,546 Q571,617 571,680 Q574,690 582,700 Q590,710 601,710 Q615,710 623,696 Q631,682 631,670 Q631,668 630.5,663.5 Q630,659 630,658 Q629,642 627,618.5 Q625,595 622.5,568.5 Q620,542 617.5,515.5 Q615,489 613,467 Q611,445 609.5,430.5 Q608,416 608,414 Q607,405 602,381.5 Q597,358 591,331 Q585,304 579.5,279 Q574,254 571,243 Q570,241 564.5,225.5 Q559,210 552,190 Q545,170 538,150 Q531,130 527,118 Q517,92 502,78.5 Q487,65 460,65 Q431,65 412.5,84.5 Q394,104 386,133"/> 
            <glyph glyph-name="X" unicode="&#x58;" horiz-adv-x="504" d=" M252,327 Q233,313 211,278.5 Q189,244 166.5,208.5 Q144,173 120.5,146 Q97,119 75,119 Q60,119 55.5,123 Q51,127 51,142 Q51,153 52,158 Q53,163 59,172 L209,382 L82,542 Q68,559 63.5,571 Q59,583 59,600 Q59,612 65,621.5 Q71,631 85,631 Q102,631 111.5,614.5 Q121,598 126,586 Q132,578 147.5,558 Q163,538 181,515.5 Q199,493 215,473 Q231,453 237,446 Q239,444 244.5,438.5 Q250,433 252,431 Q258,437 271.5,451.5 Q285,466 300.5,482.5 Q316,499 329.5,513.5 Q343,528 348,534 Q352,538 357,548 Q362,558 369,568.5 Q376,579 384.5,586.5 Q393,594 404,594 Q418,594 424,585 Q430,576 430,564 Q430,550 428,540.5 Q426,531 415,520 L304,394 L296,379 Q328,338 359,301 Q385,269 412.5,235.5 Q440,202 459,179 Q460,178 463,175.5 Q466,173 466,172 Q468,169 473.5,163 Q479,157 485,149.5 Q491,142 496,136 Q501,130 503,127 Q504,126 504,122 Q504,118 504,116 Q504,89 476,89 Q474,89 470.5,89.5 Q467,90 466,90"/> 
            <glyph glyph-name="Y" unicode="&#x59;" horiz-adv-x="472" d=" M212,327 Q177,357 151,392.5 Q125,428 104,467 Q83,506 66.5,547.5 Q50,589 34,631 Q34,633 33.5,640 Q33,647 33,649 Q33,660 37,671 Q41,682 56,682 Q63,682 73.5,673.5 Q84,665 86,660 L182,453 Q186,445 193,434.5 Q200,424 209,415 Q218,406 228.5,399.5 Q239,393 249.5,393 Q260,393 265,398 Q270,403 278,416 L404,623 Q409,631 421.5,642 Q434,653 445,653 Q446,653 451,649.5 Q456,646 461,641 Q466,636 469,631 Q472,626 471,623 L323,372 Q304,355 292,338.5 Q280,322 278,298 L263,54 Q262,42 251.5,40 Q241,38 234,38 Q225,38 218.5,39 Q212,40 212,54"/> 
            <glyph glyph-name="Z" unicode="&#x5A;" horiz-adv-x="518" d=" M89,124 Q72,130 69,137 Q66,144 66,162 Q66,175 67,185.5 Q68,196 81,205 Q90,214 113,236 Q136,258 162,283 Q188,308 211.5,330 Q235,352 244,360 Q247,363 257.5,371 Q268,379 281.5,389.5 Q295,400 310.5,412 Q326,424 340,434.5 Q354,445 364,453 Q374,461 376.5,463.5 Q379,466 384.5,471 Q390,476 396,482 Q402,488 407,493.5 Q412,499 414,501 L392,508 L59,568 Q57,568 53.5,572 Q50,576 46,580.5 Q42,585 39.5,589.5 Q37,594 37,597 Q37,614 50,617 Q63,620 74,620 Q79,620 87,620 Q95,620 96,619 L444,560 Q461,557 475,546.5 Q489,536 489,517 Q489,490 472.5,470.5 Q456,451 437,434 Q433,430 418.5,419 Q404,408 385,392.5 Q366,377 344.5,360 Q323,343 303.5,328 Q284,313 270,301.5 Q256,290 252,286 Q241,277 224.5,261 Q208,245 192.5,230 Q177,215 166,203 Q155,191 155,190 L155,183 L488,161 Q496,160 507,150 Q518,140 518,131 Q518,120 506,110.5 Q494,101 485,101 L481,101 Q466,102 435.5,104 Q405,106 366.5,108 Q328,110 285,112.5 Q242,115 203.5,117 Q165,119 134.5,121 Q104,123 89,124"/> 
            <glyph glyph-name="[" unicode="&#x5B;" horiz-adv-x="400" d=" M177,35 Q174,53 172,68.5 Q170,84 169.5,98 Q169,112 169,127.5 Q169,143 169,161 Q169,167 169,178.5 Q169,190 169.5,202 Q170,214 170,223.5 Q170,233 170,235 Q170,252 170.5,288 Q171,324 172,369 Q173,414 173.5,464 Q174,514 175,559 Q176,604 176.5,640 Q177,676 177,693 Q180,698 187,703 Q194,708 199,708 L362,708 Q376,708 380.5,698.5 Q385,689 385,679 Q385,674 385,666 Q385,658 377,656 Q371,656 355,655 Q339,654 321,653 Q303,652 287.5,651 Q272,650 266.5,649 Q261,648 250.5,645 Q240,642 236,634 Q236,618 235.5,585 Q235,552 234,510.5 Q233,469 232.5,423 Q232,377 231,335.5 Q230,294 229.5,261 Q229,228 229,212 L229,162 L229,124 Q229,119 230,111 Q231,103 232.5,96 Q234,89 235,84 L236,79 L369,79 Q386,79 393,71.5 Q400,64 400,50 Q400,36 395.5,30.5 Q391,25 377,20 Q369,20 349,19 Q329,18 306.5,16.5 Q284,15 264,14 Q244,13 236,13 L220,13 Q206,13 196,18.5 Q186,24 177,35"/> 
            <glyph glyph-name="]" unicode="&#x5D;" horiz-adv-x="309" d=" M100,16 Q100,18 100,28 Q100,38 108,38 L226,38 L226,667 Q226,668 223.5,670.5 Q221,673 218.5,674.5 Q216,676 204.5,678.5 Q193,681 189,682 Q183,683 167.5,684 Q152,685 134,686 Q116,687 100,688 Q84,689 78,689 Q67,694 65,700 Q63,706 63,715 Q63,724 65,730 Q67,736 78,741 Q82,741 91,741 Q100,741 110,741.5 Q120,742 129,742 Q138,742 141,742 Q147,742 157.5,742 Q168,742 178,741.5 Q188,741 195.5,741 Q203,741 204,741 Q209,741 223,739 Q237,737 251.5,733 Q266,729 277.5,722 Q289,715 289,704 L289,38 Q303,36 306,27.5 Q309,19 309,9 Q309,2 307,-9.5 Q305,-21 293,-21 L138,-21 Q119,-21 109.5,-9.5 Q100,2 100,16"/> 
            <glyph glyph-name="^" unicode="&#x5E;" horiz-adv-x="333" d=" M73,633 Q73,641 86.5,663.5 Q100,686 119,710 Q138,734 158,752.5 Q178,771 190.5,771 Q203,771 211,768.5 Q219,766 229,755 L325,644 Q326,643 329,637.5 Q332,632 333,630 L333,626 Q333,613 323.5,606.5 Q314,600 303,600 Q297,600 291.5,601 Q286,602 281,607 L199,696 L192,696 Q189,692 182,682.5 Q175,673 166.5,662.5 Q158,652 150.5,642.5 Q143,633 140,630 Q139,628 135,623.5 Q131,619 125.5,613.5 Q120,608 113.5,604 Q107,600 103,600 Q92,600 82.5,612 Q73,624 73,633"/> 
            <glyph glyph-name="_" unicode="&#x5F;" horiz-adv-x="543" d=" M54,98 Q48,102 43.5,109.5 Q39,117 39,124 Q39,134 45,141 Q51,148 61,150 Q66,150 79.5,150 Q93,150 107.5,150.5 Q122,151 135.5,151 Q149,151 154,151 Q163,151 177.5,151 Q192,151 206.5,150.5 Q221,150 232.5,150 Q244,150 246,150 Q257,150 278.5,149 Q300,148 328,146.5 Q356,145 386.5,143.5 Q417,142 445,140 Q473,138 494.5,137 Q516,136 527,135 Q539,131 541,123 Q543,115 543,105 Q543,100 541.5,90 Q540,80 527,83 L446,83 L364,83 Q353,83 328.5,84.5 Q304,86 273.5,87.5 Q243,89 209,90.5 Q175,92 144.5,93.5 Q114,95 89.5,96 Q65,97 54,98"/> 
            <glyph glyph-name="a" unicode="&#x61;" horiz-adv-x="331" d=" M248,124 Q240,128 233,132 Q226,136 221,137 Q220,137 214.5,134 Q209,131 202,128 Q195,125 188.5,122.5 Q182,120 179,120 L180,120 Q169,118 149.5,116 Q130,114 110,119.5 Q90,125 73.5,137.5 Q57,150 46.5,169.5 Q36,189 36,215 Q36,266 66.5,300 Q97,334 167,333 Q174,333 182,332 Q190,331 198,330 Q211,327 222,327 Q222,346 221,364 Q220,382 213.5,396 Q207,410 193,419 Q179,428 154,428 Q137,428 125,419 Q113,410 103,401 L95,393 Q89,388 80.5,386.5 Q72,385 64.5,387 Q57,389 51.5,394.5 Q46,400 46,410 Q46,428 58,441 Q70,454 87.5,463 Q105,472 123,476.5 Q141,481 153,481 Q195,481 230,456.5 Q265,432 278,389 L278,344 Q278,324 275.5,306.5 Q273,289 270.5,271 Q268,253 266,234.5 Q264,216 264,198 L264,177 L276,164 L315,170 Q326,170 328.5,159.5 Q331,149 331,144 Q331,124 318.5,118.5 Q306,113 292,113 Q281,113 269,116 Q257,119 248,124 M88,213 Q88,201 95,192.5 Q102,184 113.5,178.5 Q125,173 138,171 Q151,169 163.5,169 Q176,169 185.5,178 Q195,187 201,199.5 Q207,212 210,227 Q213,242 213,254 Q213,261 208,266 Q203,271 195.5,273.5 Q188,276 180.5,277.5 Q173,279 168,279 Q143,280 127.5,275 Q112,270 103,261 Q94,252 91,239.5 Q88,227 88,213"/> 
            <glyph glyph-name="b" unicode="&#x62;" horiz-adv-x="371" d=" M70,184 Q72,205 74.5,249.5 Q77,294 80.5,350.5 Q84,407 87.5,469 Q91,531 93.5,565.5 Q96,600 98.5,625.5 Q101,651 103,673 Q103,692 112,705 Q121,718 141,718 Q158,718 160.5,709.5 Q163,701 162,687 Q159,635 154,568 Q149,501 146,411 Q185,411 225.5,405 Q266,399 298.5,381.5 Q331,364 351,333.5 Q371,303 369.5,255 Q368,207 342.5,180 Q317,153 281,140 Q245,127 203,125 Q161,123 127,125 Q122,118 113,110 Q104,102 93.5,102 Q83,102 78,107 Q73,112 71,119 Q69,126 69,134.5 Q69,143 69,150 M190,354 Q185,354 177,351.5 Q169,349 161.5,345.5 Q154,342 147.5,336.5 Q141,331 141,325 L137,199 Q137,192 145,189 Q153,186 163.5,184.5 Q174,183 184,183 Q194,183 196,183 Q213,183 233,187 Q253,191 269.5,200.5 Q286,210 297.5,225 Q309,240 310,262 Q311,284 299.5,301 Q288,318 270,330 Q252,342 230.5,348 Q209,354 190,354"/> 
            <glyph glyph-name="c" unicode="&#x63;" horiz-adv-x="340" d=" M43,270 Q43,312 58.5,351.5 Q74,391 101,422 Q128,453 165.5,471.5 Q203,490 247,490 Q260,490 276,486.5 Q292,483 306,475.5 Q320,468 329.5,455.5 Q339,443 339,426 Q339,413 331,406 Q323,399 312.5,399 Q302,399 295,404 Q288,409 281,414.5 Q274,420 266.5,425 Q259,430 249,430 Q218,430 191,416 Q164,402 144.5,379.5 Q125,357 113.5,328 Q102,299 102,270 Q102,245 110,228.5 Q118,212 132.5,202.5 Q147,193 166,189 Q185,185 208,185 Q235,185 259.5,193 Q284,201 310,201 Q321,201 330.5,196.5 Q340,192 340,178 Q340,159 322.5,147.5 Q305,136 282,129.5 Q259,123 236.5,120.5 Q214,118 203,118 Q127,118 85,158.5 Q43,199 43,270"/> 
            <glyph glyph-name="d" unicode="&#x64;" horiz-adv-x="420" d=" M27,257 Q27,287 35.5,322.5 Q44,358 61.5,388 Q79,418 105.5,438 Q132,458 168,458 Q186,458 201,452 Q216,446 228.5,439 Q241,432 251,426 Q261,420 268,420 Q271,420 272,421 Q273,434 276,466.5 Q279,499 282.5,571.5 Q286,644 289,676.5 Q292,709 294,722 Q295,732 297.5,745.5 Q300,759 304.5,770 Q309,781 317.5,789 Q326,797 339,797 Q352,797 358,791.5 Q364,786 366.5,777 Q369,768 369,757 Q369,746 369,736 Q369,699 365,663 Q361,627 356.5,554.5 Q352,482 348.5,445.5 Q345,409 345,372 Q345,355 344,332 Q343,309 344,284.5 Q345,260 350,237.5 Q355,215 368,199 Q374,192 382.5,189.5 Q391,187 399.5,184 Q408,181 414,176 Q420,171 420,158 Q420,141 408.5,136.5 Q397,132 383,132 Q357,132 340.5,142.5 Q324,153 313,169.5 Q302,186 296,207 Q290,228 287,250 L279,250 Q266,228 250,205.5 Q234,183 214.5,165 Q195,147 171.5,135.5 Q148,124 119.5,124 Q91,124 73,136 Q55,148 45,167 Q35,186 31,210 Q27,234 27,257 M86,254 Q86,244 86.5,231.5 Q87,219 91,208.5 Q95,198 102.5,190.5 Q110,183 124,183 Q143,183 164,201.5 Q185,220 202.5,244.5 Q220,269 231.5,295 Q243,321 243,336 Q243,347 235,358 Q227,369 215,378 Q203,387 190,393 Q177,399 167,399 Q146,399 130.5,382 Q115,365 105.5,341.5 Q96,318 91,293.5 Q86,269 86,254"/> 
            <glyph glyph-name="e" unicode="&#x65;" horiz-adv-x="349" d=" M26,289 Q26,332 43.5,368.5 Q61,405 90.5,430.5 Q120,456 158.5,470.5 Q197,485 239.5,485 Q282,485 305.5,461 Q329,437 329,395 Q329,355 308,325 Q282,288 240,264 Q198,240 155,220 Q148,217 141.5,214 Q135,211 130,208 Q124,208 124,202 Q124,198 135.5,195.5 Q147,193 161.5,191.5 Q176,190 189,189 Q202,188 206,188 Q220,188 235,191.5 Q250,195 264,199 Q278,203 292.5,205.5 Q307,208 321.5,208 Q336,208 342.5,204.5 Q349,201 349,186 Q349,165 331.5,153 Q314,141 290,136 Q266,131 241.5,130 Q217,129 204,129 Q165,129 132,137.5 Q99,146 75.5,165.5 Q52,185 39,215 Q26,245 26,289 M84,280 Q84,275 84.5,271 Q85,267 85,265 Q86,261 94,261 Q126,278 160,294 Q194,310 226,327 Q243,335 256.5,352 Q270,369 270,389 Q270,405 262.5,416 Q255,427 238,427 Q210,427 182.5,417 Q155,407 133,389 Q111,371 97.5,346 Q84,321 84,291"/> 
            <glyph glyph-name="f" unicode="&#x66;" horiz-adv-x="316" d=" M130,152 Q130,209 133,265 Q136,321 136,378 L41,378 Q40,378 36.5,382.5 Q33,387 29,392.5 Q25,398 22,403.5 Q19,409 19,410.5 Q19,412 21.5,417.5 Q24,423 26,425.5 Q28,428 30.5,432.5 Q33,437 34,437 L130,437 L137,448 Q138,449 138,459.5 Q138,470 138,475 Q138,525 133.5,574 Q129,623 129,674 Q129,678 129,689 Q129,700 129.5,712.5 Q130,725 130,736 Q130,747 130,751 Q134,765 145,777 Q156,789 170,789 Q195,789 215,769 Q235,749 249,721.5 Q263,694 271,665 Q279,636 279,619 Q279,604 274.5,599.5 Q270,595 255,595 Q238,595 228,607.5 Q218,620 211.5,637 Q205,654 200,671.5 Q195,689 189,700 L189,663 Q189,634 190,609.5 Q191,585 193,560.5 Q195,536 197.5,509 Q200,482 204,448 L300,448 Q311,448 313.5,438.5 Q316,429 316,421.5 Q316,414 313.5,406 Q311,398 300,396 L205,380 L182,108 Q181,97 172,94.5 Q163,92 156,92 Q147,92 141,94.5 Q135,97 130,108"/> 
            <glyph glyph-name="g" unicode="&#x67;" horiz-adv-x="311" d=" M-16,77 Q-16,90 -10,98 Q-4,106 10,106 Q26,106 36.5,92 Q47,78 58,61 Q69,44 84,30 Q99,16 126,16 Q158,16 180,35.5 Q202,55 215.5,83.5 Q229,112 235,143.5 Q241,175 241,200 Q232,200 221.5,194.5 Q211,189 199,182 Q187,175 173,169.5 Q159,164 144,164 Q117,164 99,173 Q81,182 70,198 Q59,214 54.5,234.5 Q50,255 50,279.5 Q50,304 57,338.5 Q64,373 78.5,403.5 Q93,434 116.5,455.5 Q140,477 173,477 Q187,477 208,466.5 Q229,456 250,441 Q271,426 288,409 Q305,392 310,379 Q310,374 310,362 Q310,350 310.5,336.5 Q311,323 311,311 Q311,299 311,294 Q311,264 308.5,227 Q306,190 298.5,152 Q291,114 278,77.5 Q265,41 243.5,12.5 Q222,-16 192,-33 Q162,-50 121,-50 Q98,-50 74,-39 Q50,-28 30,-10.5 Q10,7 -3,30 Q-16,53 -16,77 M110,276 Q110,268 111,259 Q112,250 116,242 Q120,234 126,228.5 Q132,223 143,223 Q164,223 182,235.5 Q200,248 214,266.5 Q228,285 236,307 Q244,329 244,347 Q244,356 236.5,366.5 Q229,377 218,387 Q207,397 194.5,403.5 Q182,410 172,410 Q155,410 143.5,393.5 Q132,377 124.5,355 Q117,333 113.5,310.5 Q110,288 110,276"/> 
            <glyph glyph-name="h" unicode="&#x68;" horiz-adv-x="346" d=" M112,729 Q114,741 122.5,746.5 Q131,752 142,752 Q150,752 154.5,749 Q159,746 164,736 L164,703 Q164,664 159.5,624.5 Q155,585 149.5,546 Q144,507 141,488 Q138,469 135,430 Q153,436 167.5,440.5 Q182,445 203,445 Q229,445 248.5,429 Q268,413 270,384 Q270,369 272,354.5 Q274,340 269.5,305 Q265,270 261.5,255 Q258,240 258,225.5 Q258,211 267,209.5 Q276,208 287,213 Q298,218 301,220.5 Q304,223 308,226 Q312,229 320,229 Q331,229 338.5,221.5 Q346,214 346,202 Q341,174 337,170.5 Q333,167 324,163 Q315,159 299,155 Q283,151 271,151 Q234,151 216,170.5 Q198,190 198,226 Q198,257 205,309.5 Q212,362 210,392 Q172,392 153,379.5 Q134,367 129,301 Q124,235 121.5,204.5 Q119,174 119,159 Q115,147 107.5,145.5 Q100,144 90,144 Q80,144 70,148.5 Q60,153 60,167 L60,300"/> 
            <glyph glyph-name="i" unicode="&#x69;" horiz-adv-x="328" d=" M157,398 Q148,391 134,381 Q120,371 105,361.5 Q90,352 74.5,345.5 Q59,339 46,339 Q41,339 34.5,343 Q28,347 22.5,352.5 Q17,358 13,364.5 Q9,371 9,376 Q9,388 15,395 Q21,402 30,405.5 Q39,409 49,410.5 Q59,412 68,413 Q94,434 126.5,461 Q159,488 194,502 L198,502 Q205,502 212,497.5 Q219,493 224,487 L224,435 Q224,376 220,318.5 Q216,261 216,202 L216,199 Q217,195 219.5,184 Q222,173 224,169 Q242,183 261.5,198.5 Q281,214 305,214 Q320,214 324,209.5 Q328,205 328,190.5 Q328,176 314,159.5 Q300,143 280.5,128.5 Q261,114 240,104 Q219,94 204,94 Q189,94 180,102.5 Q171,111 165.5,123.5 Q160,136 158.5,150.5 Q157,165 157,177 M201,618 Q201,632 209,637.5 Q217,643 230,643 Q248,643 254.5,632.5 Q261,622 261,605.5 Q261,589 256,586 Q251,583 235,583 Q201,583 201,618"/> 
            <glyph glyph-name="j" unicode="&#x6A;" horiz-adv-x="314" d=" M24,228 Q24,239 28.5,248 Q33,257 47,257 Q66,257 79.5,236 Q93,215 108,190 Q123,165 142.5,144 Q162,123 192,123 L203,123 Q213,147 219,167.5 Q225,188 228,208 Q231,228 232,249.5 Q233,271 233,297 Q233,301 233,312.5 Q233,324 232.5,336 Q232,348 232,359 Q232,370 231.5,375.5 Q231,381 229,385.5 Q227,390 221,390 Q211,390 202,384 Q193,378 183,371 Q173,364 162.5,358 Q152,352 140.5,352 Q129,352 117.5,355.5 Q106,359 106,375 Q106,378 109,386.5 Q112,395 114,397 Q149,410 179,437.5 Q209,465 232,493 Q234,494 238,494 Q242,494 243,494 Q260,494 269.5,482.5 Q279,471 284,455 Q289,439 290,422.5 Q291,406 291,397 Q291,395 291.5,383.5 Q292,372 292,357 Q292,342 292,326 Q292,310 292,301 Q292,295 292,281.5 Q292,268 292,252.5 Q292,237 291.5,223.5 Q291,210 291,205 Q289,187 283.5,161.5 Q278,136 268,112.5 Q258,89 242.5,72.5 Q227,56 203,56 Q174,56 142.5,72 Q111,88 84.5,113 Q58,138 41,168.5 Q24,199 24,228 M238,633 Q238,653 248,658.5 Q258,664 275,664 Q296,664 305,656.5 Q314,649 314,626 Q314,608 302.5,602 Q291,596 274.5,596 Q258,596 248,606 Q238,616 238,633"/> 
            <glyph glyph-name="k" unicode="&#x6B;" horiz-adv-x="355" d=" M81,353 L125,672 Q127,688 137,698.5 Q147,709 163,709 Q177,709 181,698.5 Q185,688 185,677 Q185,643 180.5,609.5 Q176,576 170,543 Q164,510 159.5,476.5 Q155,443 155,409 L155,398 Q157,399 162.5,401.5 Q168,404 170,405 Q176,409 191.5,419.5 Q207,430 225,442 Q243,454 259,464.5 Q275,475 281,479 Q283,479 288,479.5 Q293,480 295,480 Q307,480 316,474 Q325,468 325,453 Q325,446 320.5,439 Q316,432 310,427 L162,324 Q156,319 155,317 Q154,315 154,309 Q154,308 154.5,305.5 Q155,303 155,302 Q157,300 163.5,295.5 Q170,291 177,286.5 Q184,282 190,277.5 Q196,273 199,272 Q207,267 228,256.5 Q249,246 273,234.5 Q297,223 318,212.5 Q339,202 347,198 Q354,196 354.5,190.5 Q355,185 355,180 Q355,172 354,166.5 Q353,161 347,154 Q345,154 338,153.5 Q331,153 329,153 Q315,153 308.5,154 Q302,155 288,161 L140,235 L133,235 L132,231 Q131,227 129.5,221 Q128,215 127,208.5 Q126,202 125.5,197.5 Q125,193 124,181.5 Q123,170 121.5,157.5 Q120,145 119,133 Q118,121 118,117 Q116,109 107.5,108.5 Q99,108 95,108 Q88,108 77,110 Q66,112 66,124 L66,331"/> 
            <glyph glyph-name="l" unicode="&#x6C;" horiz-adv-x="229" d=" M57,279 Q57,392 70,477.5 Q83,563 95,643 Q96,651 97.5,664 Q99,677 103,689 Q107,701 115,709.5 Q123,718 136,718 Q162,718 162,689 Q162,687 162,680.5 Q162,674 161,673 L117,290 L117,279 Q117,273 116.5,258.5 Q116,244 117.5,229.5 Q119,215 123,204 Q127,193 136,193 L137,193 Q139,193 139,194 Q142,197 149.5,204.5 Q157,212 165,220 Q173,228 180.5,235 Q188,242 190.5,244.5 Q193,247 198.5,250 Q204,253 206,253 Q220,253 224.5,243 Q229,233 229,223 Q229,204 218,186.5 Q207,169 190,155.5 Q173,142 153,134 Q133,126 115,126 Q92,126 80,144.5 Q68,163 63,188 Q58,213 57.5,238.5 Q57,264 57,279"/> 
            <glyph glyph-name="m" unicode="&#x6D;" horiz-adv-x="501" d=" M359,215 Q360,224 365,247.5 Q370,271 376,297 Q382,323 387.5,346 Q393,369 396,378 L396,400 Q394,398 389,392.5 Q384,387 382,385 Q377,379 368.5,367.5 Q360,356 352,344 Q344,332 337.5,322.5 Q331,313 330,311 Q325,302 314,279.5 Q303,257 291.5,231 Q280,205 269.5,181.5 Q259,158 256,149 Q248,134 241.5,130 Q235,126 223,126 Q215,126 204,132 Q193,138 193,149 L193,422 L182,430 Q180,429 177.5,426.5 Q175,424 175,422 Q138,358 122.5,286 Q107,214 101,141 Q96,130 89.5,128 Q83,126 74.5,126 Q66,126 59.5,128 Q53,130 49,141 Q48,146 48,161.5 Q48,177 48,182 Q48,197 51.5,226.5 Q55,256 62,292 Q69,328 80.5,365.5 Q92,403 107,434 Q122,465 142,484.5 Q162,504 186,504 Q195,504 206.5,498.5 Q218,493 228,484 Q238,475 245,464.5 Q252,454 252,445 L252,319 L263,319 Q266,324 274,337 Q282,350 291.5,364 Q301,378 309.5,390.5 Q318,403 322,408 Q329,416 339.5,428.5 Q350,441 363.5,453 Q377,465 392,473.5 Q407,482 422,482 Q448,482 456,464.5 Q464,447 464,424 Q464,419 463.5,410.5 Q463,402 463,400 L419,201 Q418,199 418,191 Q418,183 418,179.5 Q418,176 417.5,171 Q417,166 418,160.5 Q419,155 421,151.5 Q423,148 429,148 Q441,148 451.5,152.5 Q462,157 475,157 Q491,157 496,153.5 Q501,150 501,134.5 Q501,119 492.5,110.5 Q484,102 471.5,97 Q459,92 444.5,90.5 Q430,89 419,89 Q398,89 386,97.5 Q374,106 368,119 Q362,132 360.5,148.5 Q359,165 359,181"/> 
            <glyph glyph-name="n" unicode="&#x6E;" horiz-adv-x="434" d=" M224,206 Q224,212 224.5,223 Q225,234 225,235 L270,353 L270,405 Q270,407 267,409.5 Q264,412 262,413 L239,413 Q198,413 175,392 Q152,371 140,340 Q128,309 123.5,272 Q119,235 114.5,204 Q110,173 102.5,152 Q95,131 77,131 Q68,131 58,141.5 Q48,152 48,161 L48,509 Q48,520 56.5,526 Q65,532 74,532 Q86,532 95.5,522.5 Q105,513 107,501 Q108,496 109,484.5 Q110,473 111,460.5 Q112,448 113,436 Q114,424 114,420 Q143,442 176.5,461 Q210,480 248,480 Q270,480 286.5,471 Q303,462 314,447 Q325,432 331,413 Q337,394 337,374 Q337,372 337,366.5 Q337,361 336,361 L285,220 Q284,219 284,214 Q284,209 284,206 Q284,196 286,189.5 Q288,183 299,183 Q314,183 327.5,188 Q341,193 354,198.5 Q367,204 380,209 Q393,214 406.5,214 Q420,214 427,206.5 Q434,199 434,187 Q434,169 417.5,156.5 Q401,144 378.5,136.5 Q356,129 332.5,126 Q309,123 296,123 Q256,123 240,145.5 Q224,168 224,206"/> 
            <glyph glyph-name="o" unicode="&#x6F;" horiz-adv-x="380" d=" M16,263 Q16,300 28.5,340.5 Q41,381 65,414.5 Q89,448 122.5,469.5 Q156,491 198,491 Q231,491 263.5,479.5 Q296,468 322,447 Q348,426 364,397 Q380,368 380,334 Q380,288 360.5,250 Q341,212 309,185 Q277,158 235.5,143 Q194,128 151,128 Q122,128 97.5,138.5 Q73,149 55,167.5 Q37,186 26.5,210.5 Q16,235 16,263 M75,261 Q75,236 91,221 Q107,206 127,194 Q130,194 134.5,193.5 Q139,193 144,193 L158,193 Q188,193 216,202.5 Q244,212 265.5,230 Q287,248 300,273.5 Q313,299 313,330 Q313,357 301.5,375.5 Q290,394 270.5,405.5 Q251,417 226.5,422 Q202,427 177.5,427 Q153,427 134,408 Q115,389 102,362 Q89,335 82,307 Q75,279 75,261"/> 
            <glyph glyph-name="p" unicode="&#x70;" horiz-adv-x="374" d=" M56,-31 Q56,-27 55.5,-16.5 Q55,-6 55,6 Q55,18 55,28.5 Q55,39 55,43 Q55,50 55,61.5 Q55,73 55,85 Q55,97 55.5,106 Q56,115 56,117 Q57,129 59,154.5 Q61,180 64,212.5 Q67,245 70,280 Q73,315 76,347.5 Q79,380 81.5,405.5 Q84,431 85,443 Q83,462 96,470 Q109,478 126.5,480 Q144,482 162,481 Q180,480 190,480 Q216,480 248,471.5 Q280,463 308,446.5 Q336,430 355,406 Q374,382 374,349.5 Q374,317 350.5,289 Q327,261 293.5,241 Q260,221 223,209.5 Q186,198 159,198 L155,198 Q153,198 151.5,198.5 Q150,199 141,202.5 Q132,206 130,206 Q128,206 125.5,203.5 Q123,201 122,199 L108,-23 Q107,-35 99,-40.5 Q91,-46 81.5,-46 Q72,-46 66.5,-44 Q61,-42 56,-31 M186,421 Q158,421 146,406 Q134,391 130.5,369 Q127,347 128.5,321 Q130,295 130,273 L130,250 Q146,251 175.5,259 Q205,267 234.5,280 Q264,293 286,311 Q308,329 308,351 Q308,369 294,382 Q280,395 260.5,404 Q241,413 220,417 Q199,421 186,421"/> 
            <glyph glyph-name="q" unicode="&#x71;" horiz-adv-x="355" d=" M162,109 Q148,102 139,98 Q130,94 118,94 Q95,94 81.5,107 Q68,120 61,139 Q54,158 52,179.5 Q50,201 50,218 Q50,238 54,267.5 Q58,297 66,329.5 Q74,362 86.5,394 Q99,426 116,452 Q133,478 155,494 Q177,510 204.5,510 Q232,510 250.5,494 Q269,478 281.5,455 Q294,432 302,406.5 Q310,381 317,361 Q317,360 317.5,359 Q318,358 318,357 Q318,349 314.5,344 Q311,339 306,335 Q301,331 296,326.5 Q291,322 288,316 Q254,250 236,173.5 Q218,97 218,22 Q218,19 218.5,12 Q219,5 219.5,-2.5 Q220,-10 220.5,-16 Q221,-22 221,-24 L228,-31 Q232,-27 244,-16.5 Q256,-6 269,6 Q282,18 293.5,28.5 Q305,39 310,43 Q321,51 332.5,51 Q344,51 349.5,43 Q355,35 355,25 Q355,9 339.5,-12.5 Q324,-34 301.5,-53 Q279,-72 254.5,-85.5 Q230,-99 213,-99 Q193,-99 177.5,-82.5 Q162,-66 162,-46 M203,450 Q189,450 174,426.5 Q159,403 146.5,373 Q134,343 126,315.5 Q118,288 117,279 Q117,273 116.5,257 Q116,241 116,223 Q116,205 115.5,188.5 Q115,172 115,166 Q129,166 142.5,179.5 Q156,193 167,211.5 Q178,230 186,249 Q194,268 199,279 Q201,285 206.5,298.5 Q212,312 218,327.5 Q224,343 229,356.5 Q234,370 236,376 Q236,378 236.5,383 Q237,388 237,390 Q237,396 234.5,406.5 Q232,417 227.5,426.5 Q223,436 217,443 Q211,450 203,450"/> 
            <glyph glyph-name="r" unicode="&#x72;" horiz-adv-x="330" d=" M63,140 Q64,160 65,210.5 Q66,261 65.5,291 Q65,321 63,351.5 Q61,382 56,407 Q55,410 51.5,422 Q48,434 44.5,447.5 Q41,461 37.5,473 Q34,485 33,488 L33,503 Q33,515 39,524 Q45,533 59,533 Q71,533 80.5,523.5 Q90,514 93,503 L130,347 Q130,346 131,346 L133,346 L135,346 Q136,346 137,347 Q155,377 174,396.5 Q193,416 213,428.5 Q233,441 254.5,449 Q276,457 300,457 Q315,457 322.5,449 Q330,441 330,427 Q330,419 327.5,414.5 Q325,410 315,405 Q288,394 260.5,382 Q233,370 209.5,353.5 Q186,337 167,301.5 Q148,266 137,191 Q135,185 132.5,172.5 Q130,160 125.5,147.5 Q121,135 113.5,125.5 Q106,116 93,116 Q82,116 75.5,122.5 Q69,129 63,140"/> 
            <glyph glyph-name="s" unicode="&#x73;" horiz-adv-x="317" d=" M63,171 Q63,182 67.5,191 Q72,200 85,200 Q100,200 113,196 Q126,192 142,192 Q153,192 168.5,194 Q184,196 199.5,200.5 Q215,205 228.5,212 Q242,219 248,230 L241,237 L93,303 Q65,316 53,339 Q41,362 41,389 Q41,442 74,469 Q107,496 156,496 Q175,496 198,490.5 Q221,485 240.5,473.5 Q260,462 273,444.5 Q286,427 286,403 Q286,376 260,376 Q258,376 254,376.5 Q250,377 248,377 Q236,392 226.5,403 Q217,414 207,421.5 Q197,429 185,433 Q173,437 156,437 Q135,437 121,427.5 Q107,418 107,395 Q107,381 110,372 Q113,363 130,355 L278,289 Q303,278 310,264 Q317,250 317,230 Q317,204 297,185 Q277,166 248.5,152.5 Q220,139 189,132.5 Q158,126 137,126 Q126,126 113,128 Q100,130 89,135 Q78,140 70.5,148.5 Q63,157 63,171"/> 
            <glyph glyph-name="t" unicode="&#x74;" horiz-adv-x="350" d=" M38,447 Q27,447 24.5,456.5 Q22,466 22,473.5 Q22,481 24.5,489 Q27,497 38,499 L145,516 L145,640 Q145,648 156.5,655 Q168,662 175,662 Q184,662 196,652.5 Q208,643 208,632 L208,518 L334,518 Q345,518 347.5,506.5 Q350,495 350,487.5 Q350,480 343.5,469 Q337,458 327,458 L223,458 L217,454 Q211,450 208,447 L201,440 L201,218 L208,196 Q210,198 216,205 Q222,212 230,220 Q238,228 247,234 Q256,240 264,240 Q276,240 283,232.5 Q290,225 290,214 Q290,199 281.5,179 Q273,159 260,141 Q247,123 230.5,110.5 Q214,98 199,98 Q182,98 170.5,109.5 Q159,121 152,137.5 Q145,154 141.5,172 Q138,190 138,203 L138,447"/> 
            <glyph glyph-name="u" unicode="&#x75;" horiz-adv-x="377" d=" M35,237 Q35,243 35,253 Q35,263 35,273.5 Q35,284 35.5,292 Q36,300 36,302 Q36,308 37,323 Q38,338 39,354.5 Q40,371 41,385.5 Q42,400 43,405 Q43,408 45,419 Q47,430 49.5,443 Q52,456 54,468.5 Q56,481 57.5,487.5 Q59,494 62,503.5 Q65,513 70,520.5 Q75,528 82,533.5 Q89,539 98,539 Q110,539 117.5,532.5 Q125,526 125,514 Q125,512 124.5,507 Q124,502 124,501 Q113,431 103.5,366 Q94,301 94,229 Q94,223 93.5,213 Q93,203 94,192.5 Q95,182 98,173 Q101,164 109,161 Q118,167 127.5,178 Q137,189 145,201 Q153,213 159.5,224 Q166,235 169,243 L257,457 Q261,465 267,465 Q273,465 280,465 Q294,465 302,457.5 Q310,450 310,435 Q310,402 302,370.5 Q294,339 294,305 L294,265 Q301,249 315,245 Q329,241 342.5,238.5 Q356,236 366.5,230 Q377,224 377,205 Q377,194 372.5,189.5 Q368,185 361,183.5 Q354,182 345,182.5 Q336,183 328,183 Q315,183 302.5,182.5 Q290,182 280,191 Q277,193 270.5,199.5 Q264,206 257,213 Q250,220 243.5,226 Q237,232 235,235 Q224,215 212,191.5 Q200,168 184,148 Q168,128 147.5,114.5 Q127,101 100,101 Q75,101 61.5,115.5 Q48,130 42,151 Q36,172 35.5,195.5 Q35,219 35,237"/> 
            <glyph glyph-name="v" unicode="&#x76;" horiz-adv-x="348" d=" M57,400 Q57,403 57,412 Q57,421 57.5,431 Q58,441 58,450 Q58,459 58,462 Q62,468 69,472.5 Q76,477 84.5,477 Q93,477 100.5,471 Q108,465 110,455 Q110,445 112,421 Q114,397 116.5,370 Q119,343 121,318.5 Q123,294 124,285 Q124,283 126,271 Q128,259 131.5,245.5 Q135,232 139.5,221 Q144,210 150,210 Q154,210 154,211 L295,433 Q303,446 308,451 Q313,456 324,456 Q335,456 346,448 Q347,446 347.5,438.5 Q348,431 348,429 Q348,418 347,411.5 Q346,405 343,399 Q340,393 335.5,385.5 Q331,378 324,366.5 Q317,355 299.5,326.5 Q282,298 262,266 Q242,234 223.5,205.5 Q205,177 198,166 Q187,152 176,144 Q165,136 147,136 Q125,136 109.5,151.5 Q94,167 84,191 Q74,215 68.5,245.5 Q63,276 60.5,305 Q58,334 57.5,359.5 Q57,385 57,400"/> 
            <glyph glyph-name="w" unicode="&#x77;" horiz-adv-x="494" d=" M27,335 Q21,335 16.5,346 Q12,357 12,361 L12,365 Q23,374 37,393 Q51,412 65.5,430.5 Q80,449 94.5,463 Q109,477 122,477 Q124,477 134.5,477 Q145,477 145,469 L145,269 Q145,264 147,253 Q149,242 153,231 Q157,220 163.5,211 Q170,202 179,202 L182,202 Q184,204 190,213 Q196,222 197,225 Q201,236 211.5,264.5 Q222,293 234,324.5 Q246,356 256.5,384.5 Q267,413 271.5,424.5 Q276,436 283,445.5 Q290,455 304,455 Q321,455 326,444.5 Q331,434 331,420 Q331,394 326.5,370 Q322,346 322,320 Q322,311 322,297.5 Q322,284 324,270.5 Q326,257 332.5,247.5 Q339,238 353.5,238 Q368,238 380.5,253.5 Q393,269 402.5,290 Q412,311 418,332 Q424,353 426,365 Q427,371 429.5,385.5 Q432,400 434.5,416.5 Q437,433 439,448 Q441,463 441,469 Q446,480 452,482 Q458,484 467,484 Q478,484 483.5,478.5 Q489,473 491.5,464.5 Q494,456 494,446.5 Q494,437 494,429 Q494,399 486.5,355.5 Q479,312 461.5,271 Q444,230 415.5,201 Q387,172 345,172 Q320,172 302.5,189 Q285,206 271,225 Q257,216 248.5,200.5 Q240,185 230.5,170.5 Q221,156 208.5,145.5 Q196,135 175,135 Q142,135 123.5,158.5 Q105,182 95.5,214 Q86,246 83,280 Q80,314 79,335"/> 
            <glyph glyph-name="x" unicode="&#x78;" horiz-adv-x="370" d=" M21,143 Q21,146 21,150.5 Q21,155 22,156 L155,296 L155,304 Q141,315 122,334 Q103,353 85.5,375 Q68,397 55.5,419.5 Q43,442 43,460 Q43,470 50.5,479.5 Q58,489 69,489 Q85,489 102,471.5 Q119,454 135.5,430.5 Q152,407 168.5,383.5 Q185,360 199,348 L203,348 Q220,348 232,365.5 Q244,383 256,403.5 Q268,424 281,441.5 Q294,459 314,459 Q329,459 335,449.5 Q341,440 341,428 Q341,426 340.5,424 Q340,422 340,420 L340,415 L251,304 L255,300 Q259,295 265,289 Q271,283 277,277 Q283,271 287.5,267 Q292,263 302.5,254.5 Q313,246 325,236.5 Q337,227 347.5,219 Q358,211 362,208 Q368,201 369,195 Q370,189 370,181 Q370,170 364.5,162.5 Q359,155 348,155 Q340,155 336,156.5 Q332,158 325,163 Q318,168 301,180.5 Q284,193 265.5,207 Q247,221 230,234 Q213,247 207,252 L66,119 Q64,117 55.5,114 Q47,111 44,111 Q30,111 25.5,122 Q21,133 21,143"/> 
            <glyph glyph-name="y" unicode="&#x79;" horiz-adv-x="364" d=" M0,87 Q0,95 3,106 Q6,117 12,126.5 Q18,136 26,142.5 Q34,149 45,149 Q59,149 63.5,139.5 Q68,130 68,120 L68,105 Q67,103 63.5,94 Q60,85 60,83 Q63,64 74,49.5 Q85,35 100.5,25.5 Q116,16 133.5,11.5 Q151,7 168,7 Q208,7 231.5,33 Q255,59 267.5,96 Q280,133 284,174 Q288,215 289,245 L286,246 Q280,246 270.5,237.5 Q261,229 249,219.5 Q237,210 222.5,201.5 Q208,193 192,193 Q160,193 143.5,210.5 Q127,228 120,253.5 Q113,279 112,307 Q111,335 111,356 Q111,368 109.5,389.5 Q108,411 111,431.5 Q114,452 123,467.5 Q132,483 153,483 Q165,483 172,474.5 Q179,466 179,453 Q179,427 174.5,402.5 Q170,378 170,352 Q170,346 169.5,330.5 Q169,315 171,299 Q173,283 178.5,271 Q184,259 197,259 Q214,259 227,272.5 Q240,286 251,306 Q262,326 272,349 Q282,372 292,392 Q302,412 312.5,425.5 Q323,439 337,439 Q351,439 357.5,431 Q364,423 364,410 Q364,407 364,400.5 Q364,394 363.5,393 Q363,392 362,386.5 Q361,381 359.5,375 Q358,369 357,363 Q356,357 356,356 Q355,348 353,319 Q351,290 348.5,256 Q346,222 344,193 Q342,164 341,157 Q337,124 325.5,86 Q314,48 293.5,16 Q273,-16 243.5,-37 Q214,-58 175,-58 Q145,-58 114,-48 Q83,-38 57.5,-19 Q32,0 16,27 Q0,54 0,87"/> 
            <glyph glyph-name="z" unicode="&#x7A;" horiz-adv-x="379" d=" M60,167 Q61,169 63.5,174.5 Q66,180 67,182 L275,389 L267,400 L119,400 Q108,400 95,412 Q82,424 82,437.5 Q82,451 90.5,457 Q99,463 110,463 L127,463 Q141,462 166.5,461 Q192,460 218,458.5 Q244,457 264.5,456 Q285,455 289,455 Q301,454 315,452.5 Q329,451 342,446.5 Q355,442 363.5,433.5 Q372,425 372,409 Q372,407 371.5,402 Q371,397 371,396 L178,196 L219,196 Q251,196 281.5,200 Q312,204 344,204 Q358,204 368.5,199.5 Q379,195 379,178 Q379,164 365.5,155 Q352,146 331,140.5 Q310,135 284.5,132.5 Q259,130 234,129.5 Q209,129 188.5,129 Q168,129 157,129 Q148,129 131.5,128.5 Q115,128 99.5,130 Q84,132 72,139.5 Q60,147 60,163"/> 
            <glyph glyph-name="{" unicode="&#x7B;" horiz-adv-x="328" d=" M156,233 Q149,245 133,252.5 Q117,260 101,267 Q85,274 72.5,283.5 Q60,293 60,311 Q60,312 61.5,316.5 Q63,321 65.5,326.5 Q68,332 70.5,336 Q73,340 75,340 L134,340 Q135,340 137.5,344.5 Q140,349 142,351 Q144,355 146.5,366.5 Q149,378 149,381 L179,662 Q181,681 190,704.5 Q199,728 213.5,749 Q228,770 246.5,784 Q265,798 286,798 Q289,798 299,797 Q309,796 312,795 Q323,790 325.5,784 Q328,778 328,769 Q328,758 321,751 Q314,744 304,738 Q294,732 283.5,726.5 Q273,721 267,714 Q247,689 241,662 Q235,635 230,603 Q229,593 226.5,571 Q224,549 221,521 Q218,493 215,462.5 Q212,432 209,404 Q206,376 204,354 Q202,332 201,322 Q200,319 197,310.5 Q194,302 193,299 L193,295 Q193,289 196.5,284 Q200,279 204.5,274.5 Q209,270 212.5,265.5 Q216,261 216,255 L216,70 Q216,35 231,17.5 Q246,0 264.5,-10.5 Q283,-21 298,-29.5 Q313,-38 313,-55 Q313,-59 312.5,-67.5 Q312,-76 304,-78 L279,-78 Q252,-78 230,-67 Q208,-56 192,-37.5 Q176,-19 166.5,5 Q157,29 156,55"/> 
            <glyph glyph-name="" unicode="&#x201C;" horiz-adv-x="868" d=" M748,637 Q748,655 754.5,673.5 Q761,692 772.5,707 Q784,722 800,731.5 Q816,741 835,741 Q849,741 858.5,736 Q868,731 868,715 Q868,703 860.5,696 Q853,689 844,683 Q835,677 826.5,670.5 Q818,664 815,652 Q813,643 812.5,631.5 Q812,620 810,609.5 Q808,599 801.5,591.5 Q795,584 782,584 Q773,584 766.5,589.5 Q760,595 756,603 Q752,611 750,620 Q748,629 748,637 M644,648 Q644,661 647,678.5 Q650,696 657.5,711.5 Q665,727 677.5,737.5 Q690,748 708,748 Q720,748 727,740.5 Q734,733 734,722.5 Q734,712 729.5,704 Q725,696 720,687.5 Q715,679 710,670.5 Q705,662 704,652 Q703,644 704,633.5 Q705,623 703.5,614 Q702,605 696.5,598.5 Q691,592 678,592 Q667,592 660.5,598 Q654,604 650,612.5 Q646,621 645,630.5 Q644,640 644,648"/> 
            <glyph glyph-name="" unicode="&#x201D;" horiz-adv-x="300" d=" M69,595 Q69,605 74,613 Q79,621 84.5,628.5 Q90,636 95,644 Q100,652 100,662 Q100,670 96,675 Q92,680 87.5,685 Q83,690 79.5,696 Q76,702 76,713 Q76,728 83.5,743 Q91,758 111,758 Q128,758 138,749.5 Q148,741 153,729 Q158,717 159,702.5 Q160,688 160,676 Q160,662 156.5,644 Q153,626 145.5,610 Q138,594 126,583 Q114,572 96,572 Q94,572 86.5,572 Q79,572 77,573 Q72,579 70.5,583.5 Q69,588 69,595 M202,624 Q202,639 210,650.5 Q218,662 218,676 Q218,687 214,696.5 Q210,706 210,717 Q210,733 222,749 Q234,765 251,765 Q271,765 285.5,750.5 Q300,736 300,717 Q300,682 280.5,648.5 Q261,615 233,595 Q232,595 229,594.5 Q226,594 225,594 Q212,594 207,603.5 Q202,613 202,624"/> 
            <glyph glyph-name="" unicode="&#x2192;" horiz-adv-x="1000" d=" M0,368 L820,368 Q748,440 744,546 Q846,411 1000,354 Q847,296 744,158 Q739,239 820,336 L0,336"/> 
            <glyph glyph-name="" unicode="&#x3002;" horiz-adv-x="265" d=" M116,169 Q116,185 122,200.5 Q128,216 138.5,228 Q149,240 163,247.5 Q177,255 194,255 Q209,255 222,247.5 Q235,240 244.5,228 Q254,216 259.5,201.5 Q265,187 265,173 Q265,141 243,119.5 Q221,98 191,98 Q158,98 137,115.5 Q116,133 116,169 M168,169 Q168,160 175,155 Q182,150 190,150 Q200,150 203,155 Q206,160 206,170 Q206,178 202,186.5 Q198,195 187,195 Q179,195 173.5,185 Q168,175 168,169"/> 
            <glyph glyph-name="" unicode="&#x4E00;" horiz-adv-x="757" d=" M243,360 Q243,371 251.5,380.5 Q260,390 273,390 Q315,388 357,390.5 Q399,393 442,399 L741,399 Q750,399 753.5,387.5 Q757,376 757,370 Q757,358 749,348 Q741,338 728,337 Q718,337 697,337 Q676,337 649.5,337 Q623,337 593,337 Q564,335 537.5,334.5 Q511,334 490,333.5 Q469,333 458,333 Q454,333 436.5,331 Q419,329 399,326.5 Q379,324 361,322 Q343,320 339,320 L312,320 Q302,320 289.5,321 Q277,322 267,327 Q257,330 250,338 Q243,346 243,360"/> 
            <glyph glyph-name="" unicode="&#x4E03;" horiz-adv-x="872" d=" M402,47 Q401,54 399.5,74.5 Q398,95 396.5,117 Q395,139 392,160 Q391,180 390,188 Q390,192 389.5,211 Q389,230 388,253 Q388,274 387.5,292.5 Q387,311 387,316 Q386,324 385,339 Q383,352 382,353 L378,358 L364,358 Q316,358 269,349 Q222,340 173,340 Q154,340 141,347 Q129,352 129,374 Q129,406 167,412 L365,436 Q368,436 371,439 Q376,440 378,441 L380,442 L382,444 L399,726 Q400,740 410.5,747.5 Q421,755 434,755 Q465,755 465,721 Q465,655 458,591 Q453,526 453,460 Q453,458 452.5,451.5 Q452,445 457,444 L472,444 Q522,444 570,451 Q620,458 670,458 Q673,458 682,458 Q693,458 703,458 Q713,458 722,458 Q731,456 734,456 Q746,452 754.5,444.5 Q763,437 763,424 Q763,408 753,402 Q743,394 731,390 Q726,390 714.5,390.5 Q703,391 689.5,391 Q676,391 663,391 Q652,390 648,390 Q638,390 613,388 Q588,386 560,384 Q532,380 507.5,377.5 Q483,375 473,374 Q453,375 453,356 L453,349 Q453,334 454,299 Q456,262 458.5,221 Q461,180 462.5,143.5 Q464,107 465,92 Q469,62 488,52 Q507,42 536,39 Q541,38 555.5,36.5 Q570,35 586,33.5 Q602,32 615,31 Q630,30 635,30 L697,30 L755,30 Q774,32 796.5,39.5 Q819,47 838,47 Q850,47 861,38 Q872,29 872,16 Q872,-1 859,-11 Q848,-21 831,-25 Q815,-31 797,-33 Q779,-35 768,-36 L691,-36 L614,-36 Q591,-36 557,-34 Q525,-32 492,-24 Q461,-16 435.5,0.5 Q410,17 402,47"/> 
            <glyph glyph-name="" unicode="&#x4E09;" horiz-adv-x="801" d=" M224,86 Q214,88 206,98 Q200,107 200,117 Q200,132 210,141 Q220,150 232,152 Q236,152 242.5,152 Q249,152 256.5,152.5 Q264,153 270.5,153 Q277,153 280,153 Q342,153 404,149.5 Q466,146 528,143 Q589,138 651,136 Q713,134 775,136 Q789,135 794,126 Q801,117 801,105 Q801,87 790,79.5 Q779,72 763,69 L657,69 Q603,69 548.5,73 Q494,77 440.5,81 Q387,85 332.5,87 Q278,89 224,86 M381,361 Q381,370 389,381.5 Q397,393 407,393 L617,393 Q628,393 635.5,381.5 Q643,370 643,361 Q643,352 635.5,341 Q628,330 617,330 L407,330 Q397,330 389,341 Q381,352 381,361 M320,587 Q309,590 302,599 Q295,608 295,618.5 Q295,629 302,638 Q309,647 320,649 L436,649 L551,649 Q561,649 588,648.5 Q615,648 644,648 Q675,647 701.5,646 Q728,645 738,645 Q753,645 761,633.5 Q769,622 769,610 Q769,608 768.5,603 Q768,598 766,595 Q761,589 752.5,584 Q744,579 735,579 L729,579 Q714,579 681,580 Q650,580 609.5,581 Q569,582 524.5,583 Q480,584 439.5,585 Q399,586 367,586.5 Q335,587 320,587"/> 
            <glyph glyph-name="" unicode="&#x4E0A;" horiz-adv-x="806" d=" M196,48 Q196,63 202,69.5 Q208,76 222,81 Q233,81 263.5,82 Q294,83 327,86 Q361,87 390.5,88 Q420,89 433,89 Q439,90 443.5,89.5 Q448,89 454,94 L454,113 Q454,142 451.5,166.5 Q449,191 445,227 Q445,240 445,269.5 Q445,299 444.5,335 Q444,371 443,413 Q443,453 442.5,489.5 Q442,526 442,555 Q442,584 442,599 Q442,601 441.5,614.5 Q441,628 441,635 Q441,639 441.5,652.5 Q442,666 442,669 Q445,684 453,693.5 Q461,703 476.5,703 Q492,703 498.5,695 Q505,687 507,676 Q509,665 508.5,651.5 Q508,638 508,628 Q508,613 508.5,576.5 Q509,540 509.5,499.5 Q510,459 510.5,422.5 Q511,386 511,371 Q517,363 526,363 Q565,363 604.5,365.5 Q644,368 684,368 Q687,368 695.5,368 Q704,368 714,367.5 Q724,367 732.5,367 Q741,367 744,367 Q756,367 764.5,357 Q773,347 773,334.5 Q773,322 764.5,311.5 Q756,301 744,301 Q734,301 709.5,300.5 Q685,300 657,299.5 Q629,299 604,297.5 Q579,296 569,296 Q564,296 555,295.5 Q546,295 537.5,294.5 Q529,294 522,294 L516,293 L511,288 L511,274 L511,251 Q512,245 513,227 Q516,209 517.5,187.5 Q519,166 521,146.5 Q523,127 525,118 Q526,106 527.5,100 Q529,94 540,89 Q659,92 777,86 Q789,85 797.5,75.5 Q806,66 806,54 Q806,39 796.5,31 Q787,23 772,20 Q637,21 508,19 Q379,15 247,15 L222,15 Q208,21 202,27 Q196,33 196,48"/> 
            <glyph glyph-name="" unicode="&#x4E0B;" horiz-adv-x="771" d=" M451,58 Q449,66 448,87.5 Q447,109 446,134 Q445,159 444,180.5 Q443,202 443,211 Q443,226 442.5,258 Q442,290 442,329 Q442,368 442,413 Q442,456 442,495.5 Q442,535 442.5,566.5 Q443,598 443,613 L438,621 L269,621 Q256,621 243.5,630 Q231,639 231,654 Q231,666 239.5,676 Q248,686 260,687 Q275,688 313,689.5 Q351,691 392,693 Q435,694 472.5,695 Q510,696 526,696 L635,696 L745,696 Q760,691 765.5,684 Q771,677 771,661 Q771,649 761,638.5 Q751,628 737,628 L518,628 Q517,628 514,623 Q513,619 513,617 Q512,611 510.5,598.5 Q509,586 509,584 L509,409 Q509,406 516,403 Q523,398 526,397 L728,331 Q741,327 745.5,318 Q750,309 750,296 Q750,268 718,268 Q716,268 710.5,268 Q705,268 704,269 L518,327 L516,327 L513,327 Q512,327 511,325 Q510,323 509,323 L509,290 Q509,231 513.5,173 Q518,115 518,57 Q518,41 510,32 Q502,23 486,23 Q472,23 460.5,32.5 Q449,42 451,58"/> 
            <glyph glyph-name="" unicode="&#x4E0D;" horiz-adv-x="761" d=" M461,145 Q455,182 449,226 Q444,268 444,309 Q444,328 451,346 Q457,362 480,362 Q492,362 501,357 Q510,350 511,337 Q512,327 514.5,301.5 Q517,276 519.5,247.5 Q522,219 524.5,194 Q527,169 528,159 L528,143 Q528,127 520.5,117.5 Q513,108 497,108 Q479,108 471.5,118.5 Q464,129 461,145 M270,200 Q279,215 301,253 Q323,291 347.5,334 Q372,377 393.5,415 Q415,453 424,469 Q432,483 439.5,499 Q447,515 447,530 L428,530 L287,510 L283,510 Q267,510 253,519 Q241,527 241,545 Q241,559 248.5,567.5 Q256,576 266,581 Q277,584 289.5,585 Q302,586 312,585 Q382,594 452.5,602 Q523,610 595,610 Q605,610 621.5,610 Q638,610 652,607 Q668,603 678.5,595 Q689,587 689,571 Q689,562 681,550.5 Q673,539 665,539 L544,539 Q535,539 530,535 Q526,529 523,523 Q503,475 479,432 Q454,387 428,343.5 Q402,300 377,256 Q352,212 329,166 Q322,157 315.5,153.5 Q309,150 299,150 Q294,150 281,154 Q270,157 270,166 M706,203 Q700,207 686,217 Q672,227 657,238 Q642,249 628.5,259 Q615,269 611,274 Q596,285 582,299.5 Q568,314 568,333 Q568,348 575.5,357 Q583,366 598,366 Q610,366 616.5,362.5 Q623,359 628,353.5 Q633,348 638,341 Q643,334 652,328 Q656,325 668,315 Q680,305 695,294.5 Q710,284 722.5,274 Q735,264 738,262 Q743,258 751,250.5 Q759,243 759.5,241.5 Q760,240 760.5,234.5 Q761,229 761,227 Q761,212 753,203 Q745,194 729,194 Q722,194 717,197 Q713,198 706,203"/> 
            <glyph glyph-name="" unicode="&#x4E14;" horiz-adv-x="878" d=" M169,-22 Q154,-20 138,-12 Q124,-4 124,15 Q124,23 129.5,33.5 Q135,44 145,44 L240,44 L243,49 L243,54 Q243,57 243,59 Q245,61 245,63 Q245,67 243,76 Q243,83 243,86 Q243,91 242,109.5 Q241,128 240,153 Q239,178 237.5,206 Q236,234 234.5,258.5 Q233,283 232,301.5 Q231,320 231,327 Q231,343 230,385 Q230,425 230,471.5 Q230,518 230.5,559 Q231,600 231,617 Q231,621 229.5,636.5 Q228,652 228,658 Q227,659 227,660 L227,665 Q227,673 228.5,684.5 Q230,696 234.5,707.5 Q239,719 246,727 Q253,735 265,736 Q275,738 302.5,739.5 Q330,741 360,743 Q390,745 417,748 Q445,749 455,749 L471,749 Q525,749 577.5,743.5 Q630,738 684,729 Q696,726 708.5,719.5 Q721,713 725,699 L725,568 L725,439 Q725,428 723,395 Q721,360 717,320 Q715,278 712,239 Q709,200 708,181 Q708,178 706,162.5 Q704,147 701,131 Q700,114 698,99.5 Q696,85 696,81 Q696,80 695.5,73.5 Q695,67 695,63 Q695,61 695.5,54 Q696,47 696,44 L845,36 Q857,35 867.5,25.5 Q878,16 878,3 Q878,-20 857,-26 Q843,-26 812.5,-26 Q782,-26 744,-26.5 Q706,-27 665,-27 Q623,-29 585,-29.5 Q547,-30 516.5,-30 Q486,-30 472,-30 Q470,-30 462,-30.5 Q454,-31 444,-31 Q434,-31 424,-31 Q414,-31 409,-31 Q404,-31 396,-31 Q388,-31 380,-31 Q372,-31 365,-30 Q360,-30 354.5,-30 Q349,-30 322,-28.5 Q295,-27 264.5,-26 Q234,-25 206,-24 Q180,-23 169,-22 M306,169 Q307,155 309.5,134 Q312,113 313,94 Q315,73 316,59 L318,44 L323,40 L414,40 L555,40 Q561,40 572,40.5 Q583,41 592.5,42 Q602,43 609,44 L616,44 L621,49 L623,63 Q625,77 628,96 Q631,115 633,135 Q637,155 638,169 Q638,171 638.5,179.5 Q639,188 639,190.5 Q639,193 638.5,195.5 Q638,198 638,200 L638,206 L630,210 L311,198 Q306,198 306,190 L306,182 M297,403 Q297,400 297,397 Q297,394 298,393 Q298,379 298,359.5 Q298,340 299,321 Q301,300 302,276 L306,273 L311,273 Q316,272 323,272 Q330,272 336,272 Q344,272 349,272 Q421,272 493,275 Q565,278 638,276 L645,285 L645,293 Q647,301 648,312 Q649,323 649.5,335.5 Q650,348 650,356 L650,380 L650,397 L645,400 Q645,402 635.5,403 Q626,404 614,405.5 Q602,407 588.5,408 Q575,409 567,409 Q563,409 538,411 Q513,411 481,411.5 Q449,412 417.5,412.5 Q386,413 368,413 Q367,413 353,414 Q341,414 335,414 Q331,414 318.5,413.5 Q306,413 301.5,412.5 Q297,412 297,408.5 Q297,405 297,403 M298,492 Q303,484 308,484 Q315,484 323,483.5 Q331,483 354,482 Q379,481 411.5,480 Q444,479 480,478 Q517,475 549.5,474 Q582,473 605,472 Q630,471 638,471 L648,471 Q652,471 654,472 Q658,472 658,480 L658,654 Q658,660 647,664 Q635,666 633,666 Q624,667 608.5,669 Q593,671 577,674 Q561,675 548.5,676.5 Q536,678 533,678 L527,678 Q520,678 511,678.5 Q502,679 492.5,679 Q483,679 477,679 Q436,679 393.5,679 Q351,679 311,670 Q308,670 305.5,668.5 Q303,667 302,666 Q299,621 298,587.5 Q297,554 297,515 Q297,512 297,503.5 Q297,495 298,492"/> 
            <glyph glyph-name="" unicode="&#x4E16;" horiz-adv-x="853" d=" M260,75 Q251,159 247,244 Q243,329 243,414 Q239,418 235.5,418 Q232,418 227,418 Q214,418 203.5,416 Q193,414 181,414 L165,414 Q156,421 152,427 Q148,433 148,443 Q148,459 158,468 Q168,477 182.5,481.5 Q197,486 213,487 Q229,488 239,489 L246,493 L246,580 Q246,590 258.5,595.5 Q271,601 278.5,601 Q286,601 298,595 Q312,590 312,580 L312,501 L318,497 L333,497 Q360,497 388,499.5 Q416,502 443,506 Q449,503 449,508 Q451,511 451,515 Q451,540 448.5,565 Q446,590 446,615 L446,659 Q447,673 456,679 Q465,685 477,685 Q505,685 509,659 L521,518 Q521,517 523,515 Q527,511 529,509 L531,509 L533,509 Q546,510 564.5,511 Q583,512 600,515 Q620,517 641,518 L650,521 L650,531 Q651,542 651.5,556 Q652,570 652.5,584.5 Q653,599 653,609 L653,655 Q657,666 666.5,672.5 Q676,679 687,679 Q696,679 707.5,670 Q719,661 719,650 L719,521 L828,521 Q843,521 847,510 Q853,499 853,488 Q853,475 841,464 Q831,453 819,453 L724,453 L719,447 L718,428 Q717,408 716,380.5 Q715,353 714,324.5 Q713,296 712,277 L712,216 Q704,203 691.5,197.5 Q679,192 666,190 Q662,190 647,188.5 Q632,187 614,184.5 Q596,182 581,180.5 Q566,179 563,178.5 Q560,178 551,176 Q544,174 541,174 Q540,173 539,173 L535,173 Q525,173 517,180 Q509,185 503.5,194 Q498,203 493,213 Q490,223 488,231 Q486,241 483,266.5 Q480,292 475.5,320.5 Q471,349 467.5,374.5 Q464,400 463,411 Q462,413 461,420.5 Q460,428 458,431 Q458,432 456.5,433 Q455,434 455,435 L434,435 L414,435 Q405,434 389.5,432.5 Q374,431 359.5,428.5 Q345,426 334,424.5 Q323,423 322,423 L314,418 Q314,417 313.5,409.5 Q313,402 313,392.5 Q313,383 313,372.5 Q313,362 313,357 Q313,349 313,334 Q313,319 313,303.5 Q313,288 313.5,276 Q314,264 314,260 Q314,244 315.5,217.5 Q317,191 319.5,166 Q322,141 323.5,122.5 Q325,104 326,104 L331,99 Q333,99 348,99 Q363,99 382.5,98.5 Q402,98 422.5,98 Q443,98 455,98 Q530,98 604.5,101 Q679,104 754,104 Q773,104 783.5,96 Q794,88 794,69 Q794,53 783,47 Q772,39 757.5,36 Q743,33 727.5,33 Q712,33 704,33 L293,33 Q280,33 271,48.5 Q262,64 260,75 M558,253 Q559,253 568,253 Q577,251 582,251 Q595,251 609,251 Q623,251 637,257 Q641,257 641,260 Q647,301 648.5,342 Q650,383 650,423 L650,443 Q649,449 643,449 Q639,447 637,447 Q630,447 613,446.5 Q596,446 578.5,445 Q561,444 547,442.5 Q533,441 533,439 L533,402 L554,257"/> 
            <glyph glyph-name="" unicode="&#x4E18;" horiz-adv-x="857" d=" M144,3 Q144,15 151.5,25.5 Q159,36 173,38 L252,47 L231,486 L231,535 Q231,545 241,554.5 Q251,564 259,568 L612,747 L615,747 Q617,747 618.5,747.5 Q620,748 621,748 Q635,748 644,739.5 Q653,731 653,715 Q653,703 644,692.5 Q635,682 624,676 L305,515 L301,510 L301,478 Q301,449 301.5,424 Q302,399 305,369 Q306,366 308,366 Q312,366 314,366 L322,366 Q329,366 351.5,367 Q374,368 405,369 Q436,370 470.5,372 Q505,374 536,375 Q567,376 589.5,377 Q612,378 620,378 L631,378 L641,378 Q650,378 668.5,376.5 Q687,375 707,373.5 Q727,372 743.5,370.5 Q760,369 765,369 Q781,368 796,362 Q811,356 811,335 Q811,323 803.5,313 Q796,303 782,303 L666,303 Q665,303 661,300 Q660,295 659,284 Q658,273 658,271 L658,67 L661,63 Q662,63 667.5,62.5 Q673,62 676,62 Q709,62 742,64.5 Q775,67 808,67 Q824,67 840.5,60.5 Q857,54 857,35 Q857,26 852.5,14 Q848,2 836,1 L653,-7 Q641,-14 634.5,-15 Q628,-16 615.5,-16 Q603,-16 591,-14 Q579,-12 565,-12 Q467,-12 371.5,-20.5 Q276,-29 177,-29 Q165,-29 154.5,-20 Q144,-11 144,3 M309,217 Q309,210 310.5,192 Q312,174 313,153 Q314,132 315,113 Q317,92 317,83 Q318,76 320,66 Q322,54 326,47 Q330,47 343,47 Q357,45 361,45 Q382,45 420,48 Q458,49 495,51.5 Q532,54 559,59 Q587,62 587,67 L591,300 L587,307 Q586,307 573,309 Q560,309 553,309 Q494,309 435,307.5 Q376,306 317,295 Q316,295 313.5,293.5 Q311,292 309,291 L309,254"/> 
            <glyph glyph-name="" unicode="&#x4E1C;" horiz-adv-x="774" d=" M480,17 Q480,72 489,126.5 Q498,181 498,237 Q498,239 497,243 Q497,245 497,248 L497,256 L489,260 Q486,260 470,262 Q453,262 444,262 Q419,262 390,262 Q361,262 335,256 Q333,256 321,253 Q308,248 306,248 L299,248 Q288,248 278,255 Q268,260 265,273 L265,297 Q265,323 271,350 Q279,377 289,404 Q301,430 313,454.5 Q325,479 335,501 L335,505 L260,505 Q246,505 236.5,516 Q227,527 227,540 Q227,549 231.5,559.5 Q236,570 248,571 L360,580 Q373,581 381.5,593 Q390,605 395.5,623 Q401,641 406,663 Q411,683 418,701 Q425,717 435,730 Q445,741 462,741 Q475,741 484,730.5 Q493,720 493,707 Q493,706 492.5,705 Q492,704 492,703 L492,699 L455,592 L460,585 L696,585 Q706,585 710,573 Q716,559 716,553 Q716,544 711.5,532.5 Q707,521 696,521 L426,514 L414,501 Q414,500 406.5,484.5 Q399,469 389,449 Q379,427 369,405 Q359,383 352,368 Q350,366 345.5,353 Q341,340 339,335 L339,333 L339,331 L343,327 L492,331 L497,335 Q497,339 497.5,349 Q498,359 498.5,370 Q499,381 500,391.5 Q501,402 501,405 Q502,421 512.5,436 Q523,451 540,451 Q554,451 563,439.5 Q572,428 572,416 Q572,404 569.5,391.5 Q567,379 567,366 L567,343 Q568,338 574.5,338.5 Q581,339 583,339 Q600,339 616.5,341 Q633,343 650.5,343 Q668,343 679,338 Q691,331 691,312 Q691,287 672.5,281.5 Q654,276 631.5,275.5 Q609,275 588,271 Q569,266 567,244 L546,16 Q545,1 536,-10.5 Q527,-22 511,-22 Q493,-22 486,-9 Q480,2 480,17 M314,78 Q314,89 313,110 Q312,131 314.5,151.5 Q317,172 325,188 Q334,202 353,202 Q369,202 377,191 Q385,180 385,166 Q385,157 385.5,135 Q386,113 383.5,89.5 Q381,66 372,47.5 Q363,29 345,29 Q335,29 325.5,36 Q316,43 314,53 M716,61 Q713,64 706,75 Q699,83 691.5,94.5 Q684,106 676.5,115.5 Q669,125 667,128 Q661,135 657,141.5 Q653,148 653,157 Q653,171 661.5,179 Q670,187 684.5,187 Q699,187 710,179 Q723,170 733,157.5 Q743,145 751,131.5 Q759,118 765,107 Q772,98 773,94.5 Q774,91 774,82 Q774,69 765.5,60.5 Q757,52 744,52 Q736,52 728,53 Q722,53 716,61"/> 
            <glyph glyph-name="" unicode="&#x4E1D;" horiz-adv-x="845" d=" M252,-17 Q240,-13 231.5,-5.5 Q223,2 223,15 Q223,36 239,42.5 Q255,49 271,49 Q404,49 532,47 Q661,43 796,44 Q811,45 818.5,35.5 Q826,26 826,13 Q826,3 822,-5 Q820,-13 808,-17 Q789,-18 742.5,-19.5 Q696,-21 642.5,-22.5 Q589,-24 542,-25 Q495,-26 476,-26 L463,-26 L452,-26 Q441,-26 411,-25 Q383,-24 352,-22.5 Q321,-21 292.5,-19.5 Q264,-18 252,-17 M199,208 Q199,217 202.5,226.5 Q206,236 211,244 L298,368 L298,376 L178,376 Q177,376 171,383 Q165,388 162,393 Q157,398 157,403.5 Q157,409 157,416 Q157,436 164.5,455.5 Q172,475 182,494.5 Q192,514 203.5,531.5 Q215,549 224,566 Q229,574 240,596 Q251,618 263.5,642.5 Q276,667 287,689 Q298,711 303,720.5 Q308,730 316,738 Q325,744 337,744 Q352,744 360.5,734 Q369,724 369,711 Q369,694 364.5,687 Q360,680 352,666 Q350,660 338.5,639.5 Q327,619 315,595.5 Q303,572 292,552 Q280,530 278,525 Q277,523 271,515 Q267,507 266,505 Q262,499 258.5,490.5 Q255,482 250.5,474.5 Q246,467 242,461 Q240,454 240,446 L348,446 Q355,446 361,453.5 Q367,461 372,470 Q379,479 387,487 Q395,493 408,493 Q421,493 430,485.5 Q439,478 439,463 Q439,456 436.5,449.5 Q434,443 430,437 Q428,434 423.5,426.5 Q419,419 415,413 Q410,405 407,399.5 Q404,394 402,393 Q397,385 383.5,366 Q370,347 354,327 Q340,305 326.5,286 Q313,267 307,259 L307,253 Q337,253 367,254.5 Q397,256 427,256 L456,256 Q467,254 470,244.5 Q473,235 473,226 Q473,215 467,208 Q463,201 454,198 Q446,193 436.5,191.5 Q427,190 418,189.5 Q409,189 386,188 Q362,185 335,183 Q308,181 284.5,179.5 Q261,178 252,176 L236,176 Q220,176 209.5,183.5 Q199,191 199,208 M622,206 Q607,210 604,221 Q601,232 601,245 L601,259 Q602,263 607,275 Q614,287 617,293 Q621,297 628,309 Q635,319 643.5,330.5 Q652,342 660,352.5 Q668,363 671,368 L671,369 L671,371 Q670,374 669,376 Q668,378 667,378 L530,378 Q523,378 519.5,382.5 Q516,387 513.5,393.5 Q511,400 510,407 Q509,414 509,418 Q509,441 518.5,464.5 Q528,488 541.5,511.5 Q555,535 568,556 Q583,577 593,595 Q597,604 604,623.5 Q611,643 620,664 Q630,683 641.5,697.5 Q653,712 669,712 Q682,712 691,701.5 Q700,691 700,678 Q700,660 690.5,641.5 Q681,623 676,608 L593,454 L593,446 Q598,446 613.5,445.5 Q629,445 645,444 Q663,443 678.5,442.5 Q694,442 700,442 L708,442 L717,442 Q728,463 737,475.5 Q746,488 770,488 Q783,488 791.5,480 Q800,472 800,459 Q800,441 787,420.5 Q774,400 766,388 Q751,362 732,333 Q713,304 691,281 L691,272 Q697,272 712,270.5 Q727,269 743.5,268 Q760,267 774,266 Q790,264 796,264 Q811,262 828,255.5 Q845,249 845,229 Q845,219 837.5,209.5 Q830,200 820,198 L793,198 L766,198 Q759,198 737,199 Q717,200 694,201.5 Q671,203 650.5,204.5 Q630,206 622,206"/> 
            <glyph glyph-name="" unicode="&#x4E24;" horiz-adv-x="854" d=" M684,34 Q684,45 689.5,51.5 Q695,58 703.5,61 Q712,64 720.5,65.5 Q729,67 737,69 Q740,69 742.5,74.5 Q745,80 746,81 Q770,147 777,213 Q784,279 784,350 Q784,355 784,362.5 Q784,370 783.5,378 Q783,386 783,393 Q783,398 783,399 L775,407 L763,408 Q751,409 734,412 Q717,413 699.5,414 Q682,415 671,415 Q671,416 665.5,416 Q660,416 657,416 Q656,416 650,416 Q644,416 643,415 Q639,415 639,412 Q633,388 631.5,362.5 Q630,337 630,313 Q630,305 635.5,297.5 Q641,290 647.5,283 Q654,276 661,272 Q668,266 671,263 Q679,256 689.5,249.5 Q700,243 710.5,234.5 Q721,226 727.5,216.5 Q734,207 734,194 Q734,163 703,163 Q690,163 679.5,171 Q669,179 659,188.5 Q649,198 639,205.5 Q629,213 617,213 Q612,213 607,203 Q604,192 598,180 Q594,167 585,156.5 Q576,146 561,146 Q544,146 537.5,153.5 Q531,161 531,179 Q531,201 541,229 Q553,257 556,279 Q557,284 558,294 Q559,304 560,316 Q561,328 562.5,338.5 Q564,349 564,353 Q564,357 564,366 Q564,375 564,384.5 Q564,394 563.5,403 Q563,412 563,415 L411,415 Q410,415 407,412 Q407,409 405.5,405.5 Q404,402 404,399 Q401,394 398.5,376.5 Q396,359 395,353 Q396,352 397,349.5 Q398,347 399,346 Q421,316 439.5,296 Q458,276 485,250 Q486,248 488,245 Q490,240 490,238 L490,234 Q490,218 480,211 Q470,204 456,204 Q446,204 435,210.5 Q424,217 414.5,224.5 Q405,232 396.5,240.5 Q388,249 382,255 L380,255 L379,255 Q378,254 376,252.5 Q374,251 374,250 L358,172 Q355,160 344,153 Q333,146 322,146 Q307,146 299.5,157.5 Q292,169 292,182 L292,184 L333,395 L333,399 Q333,406 329,407 L308,407 Q299,407 283,408 Q267,409 251.5,407.5 Q236,406 224.5,400.5 Q213,395 213,383 L213,370 L242,114 L242,101 Q242,88 234,77 Q227,64 211,64 Q195,64 186.5,75.5 Q178,87 176,101 L147,346 L147,428 Q147,437 155,444.5 Q163,452 173,458 Q184,462 195,465.5 Q206,469 213,469 Q217,469 231.5,470.5 Q246,472 262.5,473 Q279,474 294,477 Q309,478 313,478 Q315,478 326,479.5 Q337,481 341,481 Q345,487 346,496 Q349,505 350,510 Q351,517 352,533 Q354,547 356.5,563 Q359,579 360.5,592 Q362,605 362,610 L362,620 Q362,622 362,631 Q362,640 358,640 L292,640 Q283,640 276.5,652.5 Q270,665 270,671 Q270,684 278.5,694 Q287,704 299,705 Q314,705 344,706.5 Q374,708 412.5,709.5 Q451,711 492,713 Q533,715 571.5,716 Q610,717 639.5,718.5 Q669,720 684,721 L696,721 Q708,721 718,719 Q729,715 737,705 Q738,703 738,698 Q738,693 738,691 Q738,668 728,662.5 Q718,657 704,656.5 Q690,656 675.5,656.5 Q661,657 651,647 Q651,639 649.5,620.5 Q648,602 646.5,580.5 Q645,559 644,542 Q643,523 643,515 Q642,514 642,508.5 Q642,503 642,501 Q642,499 641.5,493 Q641,487 647,486.5 Q653,486 669.5,484.5 Q686,483 704.5,481.5 Q723,480 738,479 Q755,478 762,478 Q802,474 828,459 Q854,442 854,399 L854,370 Q854,359 853,339 Q852,319 850,299 Q850,278 849,263 Q849,246 849,243 Q848,220 846.5,203.5 Q845,187 841,171 Q839,154 834.5,138 Q830,122 824.5,101.5 Q819,81 813.5,62.5 Q808,44 799.5,29.5 Q791,15 777,6.5 Q763,-2 740,-2 Q719,-2 701.5,4 Q684,10 684,34 M419,501 Q419,499 419,492.5 Q419,486 426,486 L428,486 Q444,486 467.5,486.5 Q491,487 513,488 Q540,489 568,490 L573,495 Q574,521 576,547 Q577,570 578,592 Q579,614 581,630 L581,635 Q581,639 579,641 Q579,642 577,647 L554,647 Q525,647 494,647 Q465,646 436,639 Q419,572 419,501"/> 
            <glyph glyph-name="" unicode="&#x4E25;" horiz-adv-x="791" d=" M210,-35 Q225,43 233,124 Q242,203 242,284 Q242,315 238,347 Q234,377 234,408 Q234,421 241.5,433 Q249,445 264,445 L407,445 Q407,451 408,467 Q409,481 408,487 Q407,512 404,552 Q401,590 398.5,626.5 Q396,663 393,688 L391,714 L383,719 Q354,714 335,712 Q316,710 290,710 Q275,710 258.5,716.5 Q242,723 242,743 Q242,758 250,766 Q259,772 271,777 Q283,778 309.5,780.5 Q336,783 366.5,786 Q397,789 424.5,791.5 Q452,794 462,794 Q464,794 477,794 Q492,794 509.5,794.5 Q527,795 545.5,795 Q564,795 574,795 Q581,795 596.5,795 Q612,795 630,794.5 Q648,794 663.5,794 Q679,794 686,794 Q706,791 718,783 Q732,776 732,754 L732,743 Q729,739 723,732 Q717,725 715,725 L603,725 L598,714 Q596,663 594,614 Q592,573 589,530 Q588,487 586,458 L586,455 L586,453 Q587,453 588,451.5 Q589,450 591,450 L710,450 Q721,450 734,450 Q749,450 761.5,447 Q774,444 782.5,436 Q791,428 791,414 Q791,412 790.5,406 Q790,400 790,399 Q788,396 781.5,390 Q775,384 773,384 L313,375 L309,370 Q313,264 305,161 Q297,58 276,-48 Q276,-60 266.5,-68.5 Q257,-77 245,-77 Q210,-77 210,-42 M474,450 Q475,444 480.5,444.5 Q486,445 489,445 Q499,445 505,446 Q513,446 525,450 Q522,512 525.5,574 Q529,636 529,698 L529,714 Q528,716 527,719.5 Q526,723 525,723 L466,723 L462,719 L462,702 Q462,638 469,576 Q476,514 474,450 M313,524 Q311,527 305,535 Q301,542 294.5,550.5 Q288,559 283,566.5 Q278,574 276.5,576.5 Q275,579 274,583 Q273,587 271,590 L271,594 Q271,610 281.5,616.5 Q292,623 305,623 Q318,623 330,615.5 Q342,608 351,596 Q360,584 365,571 Q371,556 371,544.5 Q371,533 362,523 Q353,511 340,511 Q332,511 325,516 Q318,519 313,524 M644,543 Q644,554 650,571.5 Q656,589 664.5,605 Q673,621 686,633 Q699,645 713,645 Q744,645 744,613 L744,607 Q742,603 737.5,593 Q733,583 727,572 Q723,561 717,551 Q713,540 710,536 Q705,526 697.5,518.5 Q690,511 678,511 Q666,511 654,520 Q644,529 644,543"/> 
            <glyph glyph-name="" unicode="&#x4E2A;" horiz-adv-x="757" d=" M466,15 Q466,29 465.5,63.5 Q465,98 464.5,137 Q464,176 463.5,211 Q463,246 463,259 L463,303 L463,347 Q465,360 473.5,370 Q482,380 498,380 Q507,380 518,372.5 Q529,365 529,355 L529,11 Q529,-2 518,-6.5 Q507,-11 498,-11 Q485,-11 476,-4.5 Q467,2 466,15 M243,338 Q243,344 247,356 Q251,366 256,371 Q257,372 261.5,378.5 Q266,385 271.5,392.5 Q277,400 283,408 Q289,416 293,421 Q293,425 297,425 L500,711 Q505,719 513.5,724 Q522,729 531,729 Q545,729 554,720 Q563,711 563,697 Q563,688 558,682 Q555,674 549,667 Q545,659 540,652 Q537,645 537,637.5 Q537,630 541,624 Q544,621 548,615 Q554,609 558,602 Q564,595 568.5,589.5 Q573,584 575,583 Q579,577 599.5,556 Q620,535 642,510 Q666,486 686,464.5 Q706,443 712,437 Q713,435 718.5,428.5 Q724,422 730.5,414 Q737,406 743.5,398.5 Q750,391 753,388 Q757,383 757,377 Q757,371 757,363 Q757,350 749.5,341.5 Q742,333 728,333 Q723,333 718,334 Q715,334 712,338 L492,571 L490,571 L488,571 L483,566 L305,322 Q296,309 293,306.5 Q290,304 278,304 Q243,304 243,338"/> 
            <glyph glyph-name="" unicode="&#x4E2D;" horiz-adv-x="756" d=" M316,176 Q299,182 287.5,183.5 Q276,185 268,190 Q260,193 255.5,202 Q251,211 250,231 Q251,297 248.5,360 Q246,423 246,488 L246,521 Q252,547 273,554.5 Q294,562 320,563 L448,563 L457,566 Q457,574 456.5,593 Q456,612 456,633 Q456,654 456.5,673 Q457,692 457,699 Q457,710 457.5,720.5 Q458,731 461.5,740 Q465,749 472.5,755 Q480,761 492,761 Q504,761 512.5,755 Q521,749 523,736 Q523,730 522.5,714.5 Q522,699 522,683 Q522,665 522.5,650 Q523,635 523,629 Q523,627 524.5,619 Q526,611 527,602 Q528,593 529,584 Q530,575 531,571 Q531,570 532,566 Q535,563 536,563 Q542,563 560,562 Q579,559 599.5,557 Q620,555 638.5,553 Q657,551 665,549 Q667,549 673,548 Q681,546 689.5,544.5 Q698,543 706.5,540.5 Q715,538 718,537 Q729,534 742,524 Q755,514 755,500 Q755,497 755,487.5 Q755,478 755.5,468 Q756,458 756,449 Q756,440 756,436 Q756,430 756,419.5 Q756,409 755.5,398.5 Q755,388 755,380 Q755,372 755,371 Q755,368 753.5,351 Q752,334 750.5,313 Q749,292 746,272 Q744,250 743,239 Q741,217 727.5,201 Q714,185 689,185 L556,185 Q555,185 548.5,183.5 Q542,182 540,181 Q538,180 535.5,179 Q533,178 533,176 L533,3 Q533,-12 522.5,-27.5 Q512,-43 497,-43 Q488,-43 476.5,-35 Q465,-27 465,-17 L465,176 M316,259 Q318,246 334.5,244.5 Q351,243 360,243 Q386,243 413,243 Q441,241 465,251 Q471,271 470.5,296 Q470,321 470,339 L470,400 Q470,411 469.5,425.5 Q469,440 467.5,454 Q466,468 465,478 L465,488 L461,492 L320,492 L316,489 Q312,484 312,483 L312,482 L312,480 Q312,478 312.5,471 Q313,464 314,456.5 Q315,449 315.5,442 Q316,435 316,434 M536,454 Q536,432 536.5,399.5 Q537,367 538,335.5 Q539,304 539,282 L540,259 L544,256 L672,256 L677,264 Q677,265 678.5,280.5 Q680,296 682.5,317.5 Q685,339 686.5,361.5 Q688,384 689,397 L689,434 L689,471 Q677,479 661,483 Q645,487 627.5,488 Q610,489 593,488.5 Q576,488 563,488 L540,488 L536,483 L536,472"/> 
            <glyph glyph-name="" unicode="&#x4E32;" horiz-adv-x="797" d=" M461,12 Q457,17 448,20 L426,20 Q398,20 371,17.5 Q344,15 316,15 L283,15 Q267,29 263.5,38.5 Q260,48 258,69 L204,256 L204,264 Q204,275 211,284.5 Q218,294 229,297 L275,297 Q295,297 326,299 Q358,299 387,300 Q416,301 436,302 L457,302 L461,310 L461,372 L457,376 Q456,376 448.5,376.5 Q441,377 436,377 Q404,377 372.5,372.5 Q341,368 308,368 Q294,368 286.5,372 Q279,376 276,384 Q273,390 271,400 Q271,409 270.5,421.5 Q270,434 268.5,464.5 Q267,495 264.5,529.5 Q262,564 260.5,594 Q259,624 258,637 Q256,642 250,652 Q246,661 246,668 Q246,685 257,693 Q268,699 283,701.5 Q298,704 313.5,703.5 Q329,703 335.5,703.5 Q342,704 356.5,705 Q371,706 388,707 Q405,708 419.5,709.5 Q434,711 441,712 Q443,712 448,714 Q455,715 457,716 L458,716 Q460,716 461,717 L463,720 L463,811 Q463,822 475.5,827.5 Q488,833 497,833 Q504,833 516.5,827.5 Q529,822 529,811 L529,724 L536,720 Q542,720 558,719.5 Q574,719 592,719 Q610,717 625.5,716.5 Q641,716 648,716 Q663,715 681,711.5 Q699,708 715,702 Q731,694 741.5,681.5 Q752,669 752,650 Q752,648 751.5,643 Q751,638 751,636.5 Q751,635 749,621 Q747,607 747,604 Q746,594 744,570 Q743,544 740.5,515.5 Q738,487 736.5,461.5 Q735,436 735,426 Q728,411 717.5,402.5 Q707,394 689,393 L553,385 Q547,384 539,383 Q531,380 531,372 L531,302 L723,302 Q733,302 745,300 Q759,296 770,290.5 Q781,285 789,276 Q797,267 797,254 Q797,234 787.5,213 Q778,192 772,173 Q771,170 768,158.5 Q765,147 761,133.5 Q757,120 754.5,109 Q752,98 751,95 Q742,61 713.5,43.5 Q685,26 652,24 Q645,23 630,22.5 Q615,22 597,22 Q581,21 565.5,20.5 Q550,20 544,19.5 Q538,19 531,12 Q531,8 531.5,-1.5 Q532,-11 532,-22 Q532,-33 531.5,-42.5 Q531,-52 531,-55 Q531,-63 529.5,-73 Q528,-83 524.5,-92 Q521,-101 514.5,-107.5 Q508,-114 497,-114 Q486,-114 479.5,-108 Q473,-102 469,-93 Q464,-86 462.5,-76.5 Q461,-67 461,-59 M287,219 Q288,216 289,208 Q292,200 294,192 Q296,184 297.5,177.5 Q299,171 299,169 Q302,160 306.5,147 Q311,134 314.5,121.5 Q318,109 321,100 L324,90 L329,86 L343,86 L365,86 Q374,86 389.5,86.5 Q405,87 419,88 Q436,89 453,90 L461,98 L461,231 L299,231 Q297,231 292,228 Q287,225 287,221 M540,90 Q541,90 554.5,89.5 Q568,89 576,89 Q581,89 589.5,89 Q598,89 607,89.5 Q616,90 623,90 Q630,90 631,90 Q635,90 643.5,90.5 Q652,91 660.5,93.5 Q669,96 675.5,100 Q682,104 685,110 L714,219 L714,231 Q709,231 705,232 Q694,235 689,235 L684,235 Q681,235 678.5,235.5 Q676,236 675,236 Q671,236 664.5,235.5 Q658,235 656,235 Q642,235 621.5,234.5 Q601,234 582,232 Q559,231 536,231 L531,222 L531,98 M329,600 Q330,582 330.5,556 Q331,530 333,506 Q334,477 336,446 L341,442 L352,442 Q371,442 390,443 Q409,444 428,446 Q434,447 445.5,448.5 Q457,450 457,451 L461,459 L461,637 L457,641 L442,641 Q432,641 416,641.5 Q400,642 383.5,641.5 Q367,641 351.5,638.5 Q336,636 329,629 L329,614 M536,455 Q536,454 542.5,454 Q549,454 552.5,454 Q556,454 565.5,454 Q575,454 577,455 Q587,455 601.5,455.5 Q616,456 630,458 Q644,458 654,459 L665,459 L668,463 Q669,496 672,527 Q675,553 677,581.5 Q679,610 681,629 L681,631 Q681,639 668.5,643.5 Q656,648 639.5,649 Q623,650 607.5,650 Q592,650 585,650 Q583,650 575.5,650 Q568,650 559.5,649.5 Q551,649 544,648 Q537,647 536,646 L531,637 L531,459"/> 
            </font>
</defs>
</svg>
